<svg width="28" height="22" xmlns="http://www.w3.org/2000/svg">
 <!-- Created with Method Draw - http://github.com/duopixel/Method-Draw/ -->

 <g>
  <title>background</title>
  <rect fill="none" id="canvas_background" height="24" width="30" y="-1" x="-1"/>
  <g display="none" overflow="visible" y="0" x="0" height="100%" width="100%" id="canvasGrid">
   <rect fill="url(#gridpattern)" stroke-width="0" y="0" x="0" height="100%" width="100%"/>
  </g>
 </g>
 <g>
  <title>Layer 1</title>
  <g id="svg_99">
   <path id="svg_7" fill="#23282d" d="m-11.589231,55.228821l0,-0.203804c0,-0.050949 -0.050952,-0.050949 -0.050952,-0.050949c0,-0.050953 -0.050949,-0.050953 -0.050949,-0.101906l-0.050953,-0.050949c-0.050952,0 -0.050952,-0.050953 -0.101901,-0.050953l-0.203804,0c-0.866164,0 -1.579475,-0.356655 -2.190886,-0.866165c0.152851,-0.050949 0.2038,-0.2038 0.254756,-0.305702c0.050949,-0.152851 0.050949,-0.254753 -0.050956,-0.407608c-0.050949,-0.152855 -0.2038,-0.203804 -0.305705,-0.254753c-0.15285,-0.050953 -0.254752,-0.050953 -0.407603,0.050949c-0.101904,0.050949 -0.152853,0.101902 -0.203806,0.203804c-0.356657,-0.509506 -0.713311,-1.069969 -1.019016,-1.681377c0.152851,0.101902 0.356654,0.101902 0.509508,0c0.254756,-0.152855 0.356654,-0.458557 0.203803,-0.713314c-0.152854,-0.254753 -0.458558,-0.356655 -0.713311,-0.254753c-0.152853,0.101902 -0.254755,0.254753 -0.254755,0.407608l-0.458559,-0.917118l-0.458559,-0.917114c0.152855,0.050949 0.305706,0.050949 0.458559,0c0.254755,-0.152855 0.356655,-0.458557 0.203806,-0.713314l-0.152853,-0.152851c-0.152851,-0.152851 -0.407606,-0.152851 -0.61141,-0.050949c-0.152853,0.101898 -0.254755,0.2038 -0.254755,0.356655c-0.560457,-1.069969 -1.222822,-2.038036 -1.987085,-2.700397c0.050951,-0.152851 0.050951,-0.254753 -0.050949,-0.407604c-0.152855,-0.254757 -0.458559,-0.356659 -0.713312,-0.254757c-0.050951,0 -0.050951,0.050953 -0.101902,0.101902c-0.305708,-0.152851 -0.611412,-0.254753 -0.917116,-0.305706c0,-0.050949 0,-0.101902 -0.050949,-0.152851l-0.152855,-0.152851c-0.050951,-0.050953 -0.101902,-0.101906 -0.203806,-0.101906c-0.152851,-0.050949 -0.254753,-0.050949 -0.407602,0.050953l-0.152855,0.152855c-0.050953,0.050949 -0.101902,0.101898 -0.101902,0.2038c-0.71331,0.050953 -1.32472,0.356655 -1.936132,0.866165c-0.050949,0 -0.152851,0 -0.203806,0.050949c-0.152849,0.101906 -0.254753,0.203808 -0.254753,0.407612c-0.71331,0.71331 -1.375673,1.732327 -1.987082,2.853245c-0.152855,-0.254753 -0.458559,-0.356655 -0.713312,-0.203804c-0.254755,0.152855 -0.356657,0.458561 -0.203806,0.713314c0.101904,0.203804 0.305704,0.305706 0.50951,0.305706c-0.152853,0.254753 -0.254755,0.509506 -0.407606,0.764263c-0.152853,-0.050953 -0.305708,-0.050953 -0.458557,0l-0.050953,0.050949c-0.305704,-0.101902 -0.662359,-0.203804 -1.019016,-0.254753c0,-0.050953 0,-0.101902 -0.050953,-0.101902c-0.152853,-0.254753 -0.458555,-0.356655 -0.71331,-0.254753c-0.101902,0.050949 -0.152853,0.101902 -0.203804,0.152851c-0.254755,-0.050949 -0.560459,-0.101902 -0.866165,-0.152851l0,-0.203804c0,-0.050949 0,-0.152855 -0.050951,-0.203804c-0.050949,-0.152851 -0.203804,-0.203804 -0.305706,-0.254753c-0.152853,-0.050953 -0.254751,-0.050953 -0.407606,0.050949l-0.152853,0.152851c-0.050949,0.050953 -0.101902,0.101902 -0.101902,0.203808l0,0.2038c-0.407606,-0.050949 -0.764265,-0.050949 -1.222818,-0.101902c0.050949,0 0.101902,0 0.203804,-0.050949c0.254749,-0.152855 0.356651,-0.458557 0.2038,-0.713314c-0.152851,-0.254753 -0.458557,-0.356655 -0.713314,-0.254753c-0.254749,0.152851 -0.356651,0.458557 -0.2038,0.71331c0.101902,0.152855 0.254753,0.254757 0.407608,0.254757c-0.407608,0 -0.815216,-0.050949 -1.273773,-0.050949l-0.611412,0c-0.101902,-0.254757 -0.2038,-0.560459 -0.305702,-0.815216c0.152851,0.254757 0.458557,0.305706 0.71331,0.203804c0.254753,-0.152855 0.356655,-0.458557 0.203804,-0.71331c-0.152851,-0.254757 -0.458557,-0.356659 -0.713314,-0.254757c-0.2038,0.101902 -0.305702,0.305706 -0.305702,0.50951c-0.254757,-0.662361 -0.458561,-1.273773 -0.713314,-1.936134c0.101902,0 0.152855,0 0.254753,-0.050949l0.152855,-0.152855c0.152851,-0.152851 0.152851,-0.407604 0.050949,-0.611408c-0.152851,-0.254757 -0.458557,-0.356659 -0.71331,-0.254757c-0.050953,0 -0.101902,0.050949 -0.101902,0.101902c-2.445644,-6.266956 -4.891285,-11.056339 -7.897385,-11.056339c-7.642632,0 -12.73772,19.463234 -12.941525,20.329399l0,0.254753c0,0.050949 0,0.050949 0.050953,0.101898c0,0.050953 0.050949,0.050953 0.050949,0.101906l0.050953,0.050949l0.050949,0.050953c0.050953,0 0.050953,0.050949 0.101902,0.050949l0.305706,0c0,0.050953 0.050949,0.101902 0.050949,0.152855l0.152855,-0.152855l0.917114,0c-0.050949,0.050953 -0.050949,0.101902 -0.101902,0.152855c-0.050949,0.152851 -0.050949,0.254753 0.050953,0.407604c0.152851,0.254757 0.458557,0.356659 0.71331,0.254757c0.152855,-0.050953 0.203804,-0.203808 0.254757,-0.30571c0.050949,-0.152851 0.050949,-0.254749 -0.050953,-0.407604c0,-0.050949 -0.050949,-0.101902 -0.101902,-0.101902c1.22282,-0.050949 2.292789,-0.152851 3.260857,-0.305706c0,0.101902 0,0.203804 0.050949,0.305706c0.152855,0.254757 0.458561,0.356655 0.713314,0.254757c0.254753,-0.152855 0.356655,-0.458561 0.203804,-0.713314c0.662361,-0.152851 1.273773,-0.305706 1.834232,-0.458557c0.101902,0 0.203804,0 0.305702,-0.050953c0.050953,0 0.050953,-0.050949 0.101906,-0.101902c1.273769,-0.407604 2.343739,-0.866165 3.413704,-1.375671c-0.101898,0.152851 -0.152851,0.407608 -0.050949,0.560459c0.152855,0.254757 0.458557,0.356655 0.713314,0.254757c0.254753,-0.152855 0.356655,-0.458557 0.203804,-0.713314c-0.101906,-0.203804 -0.254757,-0.254753 -0.458561,-0.305706c0.611412,-0.305706 1.22282,-0.560459 1.834232,-0.815212c-0.050953,0.101902 0,0.254753 0.050953,0.356655c0.101898,0.203804 0.305706,0.305702 0.509506,0.305702c0.050953,0 0.152851,0 0.203804,-0.050949l0.152855,-0.152851c0.050949,-0.050953 0.050949,-0.050953 0.050949,-0.101902c0.254753,0.560459 0.509506,1.069969 0.764263,1.630428c-0.101902,0 -0.203804,0 -0.254757,0.050949c-0.2038,0.101906 -0.305702,0.305706 -0.305702,0.50951c0,0.050953 0,0.152851 0.050949,0.203804c0.101902,0.203804 0.305706,0.305702 0.50951,0.305702c0.050953,0 0.152851,0 0.203804,-0.050949l0.152851,-0.152851s0,-0.050953 0.050953,-0.050953c0.305702,0.560459 0.560459,1.069969 0.866161,1.579479c-0.101898,0 -0.2038,0 -0.305702,0.050949c-0.152851,0.050953 -0.203804,0.203804 -0.254757,0.305706c-0.050949,0.152851 -0.050949,0.254753 0.050953,0.407608c0.152855,0.254753 0.458557,0.356655 0.71331,0.254753c0.152855,-0.050949 0.203808,-0.203804 0.254757,-0.305706c0.662361,1.019016 1.375675,1.885185 2.139938,2.445641c-0.152855,0.152855 -0.203808,0.407612 -0.101906,0.611412c0.152855,0.254757 0.458561,0.356655 0.713314,0.254757c0.101902,-0.050957 0.203804,-0.152855 0.254757,-0.305706c0.254753,0.101898 0.509506,0.2038 0.815212,0.254749c-0.050953,0.152855 -0.050953,0.254757 0.050949,0.407612c0.152855,0.254753 0.458557,0.356651 0.713314,0.254753c0.203804,-0.101902 0.305702,-0.356655 0.254753,-0.560459c0.662361,-0.050949 1.273773,-0.254757 1.834229,-0.611408l0.050953,0c2.394693,6.063148 4.840334,10.648727 7.846436,10.648727c7.744534,0 12.737717,-14.673851 12.941521,-15.285263l0,-0.101898c0.254755,-0.203804 0.254755,-0.254753 0.254755,-0.254753zm-10.444929,-9.476864c2.139936,0 3.260857,2.24184 4.432724,4.636532c0.764263,1.579475 1.579481,3.209904 2.751348,4.22892c-4.534628,-0.305706 -6.929317,-1.426624 -9.273058,-2.496593c-0.815212,-0.356655 -1.63043,-0.764263 -2.547543,-1.069965c1.375669,-2.802299 2.853249,-5.298893 4.636528,-5.298893zm-12.482964,4.993187c2.802298,0 4.789383,0.356655 6.47076,0.866165c-0.101902,0.152851 -0.152851,0.356655 -0.254753,0.509506c-1.12092,2.394695 -2.292789,4.789383 -3.668463,6.216007c-0.764265,-1.936134 -1.477579,-3.974167 -2.190889,-5.910297c-0.203804,-0.560463 -0.407604,-1.120922 -0.611408,-1.732334c0.101902,0.050953 0.152851,0.050953 0.254753,0.050953zm-18.495167,-5.298889c2.802299,-6.317909 5.75745,-9.680668 8.508797,-9.680668c2.904198,0 5.757446,6.929317 8.304993,14.01149c-2.190887,0.101902 -3.821316,0.458557 -5.24794,0.917114c-1.579479,-3.209904 -3.158955,-5.96125 -5.553646,-5.96125c-2.751347,0 -4.02512,2.598495 -5.24794,5.146038c-1.069969,2.241837 -2.088985,4.381775 -4.076069,4.73843c0.458557,-1.477573 1.630428,-5.349842 3.311806,-9.171154zm-1.069969,9.171154c1.22282,-1.069969 2.038036,-2.751347 2.751347,-4.279873c1.120922,-2.343739 2.190891,-4.585579 4.330826,-4.585579c1.783279,0 3.209904,2.496593 4.585579,5.298893c-0.917114,0.356655 -1.73233,0.71331 -2.547543,1.120918c-2.292789,1.019016 -4.687481,2.139935 -9.120209,2.445641zm13.349129,-2.496593c-0.101902,-0.152851 -0.152851,-0.356655 -0.254753,-0.509506c1.375671,-0.458557 3.057053,-0.764263 5.196987,-0.815216c0.254757,0.662361 0.50951,1.375675 0.713314,2.038036c0.764263,2.139938 1.528526,4.279873 2.292789,6.266956c-0.560463,0.407608 -1.120918,0.611408 -1.73233,0.611408c-2.598492,-0.050949 -4.432728,-3.872265 -6.216007,-7.591679zm16.202377,17.578053c-2.445639,0 -4.789381,-4.687477 -7.031219,-10.292076c1.630428,-1.528526 2.9042,-4.177971 4.177971,-6.776466l0.305704,-0.611412c0.917118,0.356659 1.73233,0.713314 2.547544,1.069969c2.751348,1.273773 5.655544,2.598495 11.76965,2.700397c-1.069968,2.751347 -5.604597,13.909588 -11.76965,13.909588z"/>
   <ellipse id="svg_8" fill="#23282d" ry="1.1" rx="1.1" transform="matrix(0.232845, 0.40537, -0.452954, 0.208384, -6.54498, 20.2518)" cy="48.878584" cx="23.816278"/>
   <ellipse id="svg_9" fill="#23282d" ry="1.1" rx="1.1" transform="matrix(0.232845, 0.40537, -0.452954, 0.208384, -5.24115, 21.5882)" cy="52.478584" cx="22.716278"/>
   <path id="svg_10" fill="#23282d" d="m-21.117044,41.095093c0.2038,-0.091194 0.305706,-0.319187 0.254757,-0.501579c-0.152855,-0.136795 -0.356661,-0.27359 -0.509512,-0.364788c-0.101902,0 -0.152853,0 -0.254753,0.045601c-0.254755,0.136795 -0.356659,0.410385 -0.203806,0.638374c0.152851,0.182392 0.458559,0.27359 0.713314,0.182392z"/>
   <ellipse id="svg_11" fill="#23282d" ry="1.1" rx="1.1" transform="matrix(0.232845, 0.40537, -0.452954, 0.208384, -8.05212, 21.4031)" cy="47.778584" cx="20.216278"/>
   <path id="svg_12" fill="#23282d" d="m-19.996126,46.612488c0,0.045597 0,0.136795 0.050949,0.182392c0.152853,0.227989 0.458559,0.319187 0.713314,0.227989c0.254755,-0.136791 0.356653,-0.410381 0.203804,-0.638374c-0.050949,-0.136795 -0.203804,-0.182392 -0.305706,-0.227993c-0.152853,-0.045597 -0.254751,-0.045597 -0.407606,0.045601c-0.152853,0.045597 -0.254755,0.227989 -0.254755,0.410385zm1.528526,-2.827095c0.152855,0.045597 0.254753,0.045597 0.40761,-0.045597l0.050949,-0.045601c-0.101904,-0.182388 -0.203806,-0.319187 -0.356661,-0.455982c-0.101898,-0.091194 -0.152847,-0.227993 -0.254751,-0.319187c-0.2038,0.136795 -0.305706,0.410385 -0.2038,0.638374c0.101898,0.091198 0.2038,0.182396 0.356653,0.227993z"/>
   <ellipse id="svg_13" fill="#23282d" ry="1.1" rx="1.1" transform="matrix(-0.452954, 0.208384, -0.232845, -0.40537, 46.1542, 52.1532)" cy="75.083722" cx="108.978584"/>
   <ellipse id="svg_14" fill="#23282d" ry="1.1" rx="1.1" transform="matrix(-0.232845, -0.40537, 0.452954, -0.208384, 8.47394, 96.1949)" cy="-1.578584" cx="124.483722"/>
   <ellipse id="svg_15" fill="#23282d" ry="1" rx="1.1" transform="matrix(0.232845, 0.40537, -0.452954, 0.208384, 0.587626, 19.4688)" cy="59.578584" cx="32.216278"/>
   <ellipse id="svg_16" fill="#23282d" ry="1.1" rx="1.1" transform="matrix(-0.452954, 0.208384, -0.232845, -0.40537, 42.4666, 51.8915)" cy="73.883722" cx="105.378584"/>
   <ellipse id="svg_17" fill="#23282d" ry="1" rx="1.1" transform="matrix(0.232845, 0.40537, -0.452954, 0.208384, -2.22434, 19.2842)" cy="54.778584" cx="29.816278"/>
   <path id="svg_18" fill="#23282d" d="m-22.798426,45.928513c0.254757,-0.136795 0.356655,-0.410385 0.203808,-0.638374c-0.152855,-0.227993 -0.458559,-0.319191 -0.713314,-0.227993c-0.254757,0.136795 -0.356655,0.410381 -0.203804,0.638374c0.101902,0.273594 0.407606,0.364784 0.71331,0.227993zm3.108004,-4.28624c-0.101902,-0.091198 -0.152851,-0.182392 -0.254755,-0.27359c-0.050949,-0.045597 -0.101898,-0.091194 -0.101898,-0.136795c0,0.045601 0,0.091198 0.050949,0.136795c0.050949,0.136795 0.152853,0.227993 0.305704,0.27359zm-1.987085,1.048759c0.203806,-0.091194 0.305708,-0.27359 0.305708,-0.455982c0,-0.045597 0,-0.136795 -0.050953,-0.182396c-0.152851,-0.227989 -0.458555,-0.319187 -0.713308,-0.227989c-0.254755,0.136799 -0.356659,0.410385 -0.203806,0.638378c0.101902,0.27359 0.407606,0.364784 0.662359,0.227989zm6.114105,5.3806l0.050955,-0.045601c-0.152854,-0.273586 -0.305708,-0.547176 -0.407609,-0.866364c-0.05095,0 -0.101899,0 -0.101899,0.045597c-0.152853,0.045593 -0.203806,0.182392 -0.254755,0.27359c-0.050955,0.136791 -0.050955,0.227989 0.050949,0.364784c0.050953,0.227993 0.356654,0.319187 0.662359,0.227993z"/>
   <ellipse id="svg_19" fill="#23282d" ry="1" rx="1.1" transform="matrix(-0.232845, -0.40537, 0.452954, -0.208384, 10.2432, 102.529)" cy="4.221416" cx="130.483722"/>
   <ellipse id="svg_20" fill="#23282d" ry="1.1" rx="1.1" transform="matrix(-0.452954, 0.208384, -0.232845, -0.40537, 56.7163, 59.5415)" cy="85.683722" cx="117.378584"/>
   <ellipse id="svg_21" fill="#23282d" ry="1.1" rx="1.1" transform="matrix(-0.452954, 0.208384, -0.232845, -0.40537, 53.2784, 55.978)" cy="80.983722" cx="114.878584"/>
   <path id="svg_22" fill="#23282d" d="m-17.244778,45.928513c0.152851,0.045601 0.254753,0.045601 0.407604,-0.045597c0.050955,-0.045601 0.101904,-0.045601 0.101904,-0.091198c-0.101904,-0.136795 -0.152853,-0.27359 -0.254755,-0.410385c-0.101902,-0.136795 -0.152855,-0.27359 -0.254753,-0.410385c-0.050953,0 -0.101904,0 -0.152853,0.045601c-0.152851,0.045597 -0.203806,0.182392 -0.254757,0.27359c-0.050949,0.136791 -0.050949,0.227989 0.050951,0.364784c0.101904,0.182392 0.254755,0.227993 0.356659,0.27359zm3.566559,6.383759c-0.050949,-0.182388 -0.152854,-0.364788 -0.203803,-0.547176c0,0.045597 -0.050949,0.136791 0,0.182388c0,0.045601 0,0.136799 0.050949,0.1824c0.050953,0.09119 0.101905,0.136791 0.152854,0.182388z"/>
   <ellipse id="svg_23" fill="#23282d" ry="1" rx="1.1" transform="matrix(0.232845, 0.40537, -0.452954, 0.208384, 11.8345, 20.2071)" cy="78.378584" cx="41.916278"/>
   <ellipse id="svg_24" fill="#23282d" ry="1.1" rx="1.1" transform="matrix(-0.452954, 0.208384, -0.232845, -0.40537, 60.1534, 63.105)" cy="90.383722" cx="119.778584"/>
   <path id="svg_25" fill="#23282d" d="m-14.95199,50.169155c0.050953,0.045597 0.101902,0.091194 0.203806,0.091194c0.101899,0.045597 0.152851,0.045597 0.254753,0c-0.050953,-0.136795 -0.101902,-0.27359 -0.203803,-0.410385c-0.05095,-0.136795 -0.152854,-0.27359 -0.203803,-0.455982c-0.050953,0.045597 -0.101902,0.045597 -0.101902,0.091194c-0.050952,0.045601 -0.101905,0.091198 -0.101905,0.182396c-0.050949,0.136795 -0.050949,0.227989 0.050953,0.364784c0,0.045601 0.050952,0.091198 0.101901,0.136799zm2.496593,5.973373c0.050953,0 0.050953,-0.045597 0.101902,-0.091198c-0.050949,-0.227989 -0.152854,-0.501579 -0.254756,-0.820766c-0.101898,0 -0.203803,0 -0.356654,0.045597c-0.254755,0.136795 -0.356657,0.410381 -0.203803,0.638374c0.152851,0.27359 0.458559,0.364788 0.713311,0.227993zm-12.075357,-13.223503c-0.152851,0.045597 -0.203804,0.182392 -0.254753,0.27359c-0.050953,0.136795 -0.050953,0.227989 0.050949,0.364784c0.152855,0.227993 0.458559,0.319187 0.713312,0.227993c0.152853,-0.045597 0.203806,-0.182396 0.254755,-0.273586c0.050949,-0.136799 0.050949,-0.227997 -0.050949,-0.364788c-0.050953,-0.136799 -0.203806,-0.182396 -0.305706,-0.227993c-0.152853,-0.045597 -0.305704,-0.045597 -0.407608,0zm-2.700394,1.550343c0,0.045597 0,0.136795 0.050949,0.182392l0.152851,0.136795c0.101904,0.091198 0.254755,0.136795 0.407608,0.091198c0.050949,0 0.152855,0 0.203804,-0.045601c0.152851,-0.045597 0.203806,-0.182392 0.254755,-0.27359c0.050949,-0.136791 0.050949,-0.227989 -0.050949,-0.364788c-0.050955,-0.136791 -0.203806,-0.182388 -0.305712,-0.227989c-0.152847,-0.045597 -0.254751,-0.045597 -0.407602,0.045601c-0.203804,0.091198 -0.305704,0.273586 -0.305704,0.455982zm1.528526,-2.781498c0.152851,0.045597 0.254753,0.045597 0.407602,-0.045597c0.254757,-0.136795 0.356661,-0.410385 0.203808,-0.638374c-0.152855,-0.227993 -0.458559,-0.319187 -0.713314,-0.227993l-0.152851,0.136795c-0.101906,0.091198 -0.152855,0.227989 -0.101906,0.364788c0,0.045597 0,0.136791 0.050953,0.182392c0.050953,0.091194 0.152853,0.182392 0.305708,0.227989z"/>
   <ellipse id="svg_26" fill="#23282d" ry="1.1" rx="1.1" transform="matrix(0.232845, 0.40537, -0.452954, 0.208384, -6.9526, 25.2284)" cy="53.678584" cx="14.516278"/>
   <ellipse id="svg_27" fill="#23282d" ry="1.1" rx="1.1" transform="matrix(0.232845, 0.40537, -0.452954, 0.208384, -5.64825, 26.5644)" cy="57.278584" cx="13.316278"/>
   <ellipse id="svg_28" fill="#23282d" ry="1" rx="1.1" transform="matrix(0.232845, 0.40537, -0.452954, 0.208384, -5.44494, 24.0765)" cy="54.878584" cx="18.016278"/>
   <path id="svg_29" fill="#23282d" d="m-29.472986,42.189453c0.254753,-0.136799 0.356653,-0.410385 0.2038,-0.638378c-0.101902,-0.136795 -0.254753,-0.227989 -0.407606,-0.273586c-0.203804,0.136791 -0.407606,0.273586 -0.560457,0.410381c0,0.091198 0,0.182396 0.050949,0.273594c0.101902,0.273586 0.458559,0.36478 0.713314,0.227989z"/>
   <ellipse id="svg_30" fill="#23282d" ry="1" rx="1.1" transform="matrix(0.232845, 0.40537, -0.452954, 0.208384, -8.25691, 23.8919)" cy="50.178584" cx="15.616278"/>
   <ellipse id="svg_31" fill="#23282d" ry="1.1" rx="1.1" transform="matrix(0.232845, 0.40537, -0.452954, 0.208384, -1.32862, 25.5972)" cy="63.178584" cx="19.316278"/>
   <ellipse id="svg_32" fill="#23282d" ry="1.1" rx="1.1" transform="matrix(0.232845, 0.40537, -0.452954, 0.208384, -0.0247974, 26.9337)" cy="66.778584" cx="18.216278"/>
   <ellipse id="svg_33" fill="#23282d" ry="1.1" rx="1.1" transform="matrix(-0.232845, -0.40537, 0.452954, -0.208384, 3.91725, 95.8957)" cy="0.821416" cx="119.883722"/>
   <ellipse id="svg_34" fill="#23282d" ry="1.1" rx="1.1" transform="matrix(0.232845, 0.40537, -0.452954, 0.208384, -2.83576, 26.7491)" cy="61.978584" cx="15.816278"/>
   <ellipse id="svg_35" fill="#23282d" ry="1" rx="1.1" transform="matrix(0.232845, 0.40537, -0.452954, 0.208384, -2.63297, 24.2608)" cy="59.578584" cx="20.416278"/>
   <path id="svg_36" fill="#23282d" d="m-26.517841,50.351543c0.050957,0 0.152855,0 0.203808,-0.045597c0.254751,-0.136791 0.356657,-0.410385 0.203802,-0.638374l-0.152853,-0.136795c-0.050949,-0.045601 -0.101902,-0.091198 -0.2038,-0.091198c-0.152855,-0.045597 -0.254755,-0.045597 -0.40761,0.045597c-0.152853,0.045601 -0.203804,0.182396 -0.254753,0.27359c0,0.045601 -0.050951,0.136795 0,0.182396c0,0.045597 0,0.136795 0.050949,0.182392c0.101906,0.136795 0.305706,0.227989 0.560457,0.227989zm-1.069963,-2.23431c0.203802,-0.091202 0.305704,-0.273594 0.305704,-0.455986c0,-0.045601 0,-0.136795 -0.050953,-0.182392c-0.152851,-0.227997 -0.458555,-0.319187 -0.71331,-0.227997c-0.152851,0.045601 -0.203804,0.1824 -0.254753,0.273594c-0.050951,0.136795 -0.050951,0.227993 0.050949,0.364784c0.101902,0.27359 0.407606,0.364788 0.662363,0.227997zm-1.73233,-3.009491l-0.152851,0.136795c-0.101902,0.091198 -0.152853,0.227989 -0.101902,0.364788c0,0.045597 0,0.136791 0.050949,0.182392l0.152851,0.136795c0.101902,0.091194 0.254755,0.136791 0.40761,0.091194c0.050949,0 0.152851,0 0.203802,-0.045593l0.152851,-0.136799c0.101902,-0.091198 0.152855,-0.227989 0.101902,-0.364788c0,-0.045597 0,-0.136791 -0.050949,-0.182388l-0.152851,-0.136799c-0.101904,-0.091194 -0.254755,-0.136791 -0.40761,-0.091194c-0.050949,0 -0.1019,0.045597 -0.203802,0.045597zm-2.598495,1.778336l0.152855,0.136791c0.1019,0.091198 0.254755,0.136799 0.407606,0.091198c0.050949,0 0.152853,0 0.203802,-0.045597c0.254755,-0.136795 0.356657,-0.410385 0.203804,-0.638378c-0.152851,-0.227989 -0.458559,-0.319187 -0.713312,-0.227989c-0.305704,0.136791 -0.407604,0.410385 -0.254755,0.683975zm4.483679,-4.833424c0.254753,-0.136791 0.356653,-0.410381 0.203804,-0.638374c-0.152855,-0.227989 -0.458559,-0.319187 -0.713314,-0.227989l-0.152855,0.136795c-0.101898,0.091194 -0.152851,0.227989 -0.101898,0.364784c0,0.045597 0,0.136795 0.050949,0.182396c0.101902,0.182388 0.458559,0.319187 0.713314,0.182388z"/>
   <ellipse id="svg_37" fill="#23282d" ry="1.1" rx="1.1" transform="matrix(0.232845, 0.40537, -0.452954, 0.208384, -7.36019, 30.205)" cy="58.478584" cx="5.116278"/>
   <ellipse id="svg_38" fill="#23282d" ry="1.1" rx="1.1" transform="matrix(0.232845, 0.40537, -0.452954, 0.208384, -6.05584, 31.541)" cy="62.078584" cx="4.016278"/>
   <ellipse id="svg_39" fill="#23282d" ry="1" rx="1.1" transform="matrix(0.232845, 0.40537, -0.452954, 0.208384, -5.85257, 29.0531)" cy="59.678584" cx="8.716278"/>
   <path id="svg_40" fill="#23282d" d="m-31.867678,43.28381c0.203802,-0.091194 0.305704,-0.319187 0.254755,-0.501579c-0.203806,0.182392 -0.458557,0.364788 -0.662361,0.54718c0.152851,0.045597 0.305704,0.045597 0.407606,-0.045601zm2.547543,8.025299c0.101902,0.091198 0.254755,0.136795 0.407606,0.091198c0.050953,0 0.152853,0 0.203806,-0.045597c0.254753,-0.136795 0.356655,-0.410385 0.2038,-0.638378c-0.101902,-0.182392 -0.305704,-0.27359 -0.509508,-0.27359c-0.050949,0 -0.152851,0 -0.203802,0.045601c-0.152855,0.045597 -0.203804,0.182388 -0.254753,0.273586c-0.050953,0.136799 -0.050953,0.227993 0.050949,0.364788c0,0.091198 0.050949,0.136791 0.101902,0.182392z"/>
   <ellipse id="svg_41" fill="#23282d" ry="1.1" rx="1.1" transform="matrix(0.232845, 0.40537, -0.452954, 0.208384, -1.73726, 30.5738)" cy="67.978584" cx="10.016278"/>
   <ellipse id="svg_42" fill="#23282d" ry="1.1" rx="1.1" transform="matrix(-0.232845, -0.40537, 0.452954, -0.208384, -9.74879, 94.9986)" cy="8.021416" cx="105.783722"/>
   <ellipse id="svg_43" fill="#23282d" ry="1" rx="1.1" transform="matrix(0.232845, 0.40537, -0.452954, 0.208384, -0.228588, 29.422)" cy="69.178584" cx="13.516278"/>
   <ellipse id="svg_44" fill="#23282d" ry="1.1" rx="1.1" transform="matrix(0.232845, 0.40537, -0.452954, 0.208384, -3.24387, 31.7257)" cy="66.778584" cx="6.416278"/>
   <ellipse id="svg_45" fill="#23282d" ry="1" rx="1.1" transform="matrix(0.232845, 0.40537, -0.452954, 0.208384, -3.0406, 29.2374)" cy="64.378584" cx="11.116278"/>
   <path id="svg_46" fill="#23282d" d="m-34.82283,46.019707c0.203804,-0.091194 0.305706,-0.27359 0.305706,-0.455978c-0.101902,0.136791 -0.203804,0.227989 -0.305706,0.364784c-0.050953,0.045601 -0.050953,0.091194 -0.101902,0.136791c0,0 0.050949,-0.045597 0.101902,-0.045597zm-0.560459,1.641541c0.254753,-0.136795 0.356655,-0.410389 0.203804,-0.638378c-0.101902,-0.136791 -0.254753,-0.227989 -0.407608,-0.227989c-0.203804,0.227989 -0.356655,0.455978 -0.560459,0.683975c0.203804,0.182392 0.50951,0.27359 0.764263,0.182392zm2.547546,1.823929l-0.152855,0.136799c-0.101902,0.091194 -0.152851,0.227989 -0.101902,0.364784c0,0.045597 0,0.136795 0.050953,0.182396c0.152851,0.227989 0.458553,0.319187 0.71331,0.227989c0.254757,-0.136795 0.356657,-0.410385 0.203804,-0.638378c-0.101902,-0.319187 -0.458561,-0.410381 -0.71331,-0.27359z"/>
   <ellipse id="svg_47" fill="#23282d" ry="1.1" rx="1.1" transform="matrix(-0.452954, 0.208384, -0.232845, -0.40537, 22.7825, 67.1017)" cy="85.883722" cx="81.978584"/>
   <path id="svg_48" fill="#23282d" d="m-34.160469,48.117233c0.101902,0.091194 0.254757,0.136791 0.407608,0.091194c0.050953,0 0.152851,0 0.203804,-0.045601c0.152851,-0.045593 0.2038,-0.182392 0.254753,-0.27359c0.050953,-0.136791 0.050953,-0.227989 -0.050953,-0.364784l-0.152851,-0.136795c-0.101902,-0.091198 -0.254753,-0.136799 -0.407604,-0.091198c-0.050953,0 -0.152855,0 -0.203804,0.045597l-0.152855,0.136799c-0.152851,0.136791 -0.152851,0.364784 -0.050949,0.547176c0.050949,0 0.101898,0.045601 0.152851,0.091202zm0.356659,15.41222c-0.254757,0.136795 -0.356659,0.410381 -0.203804,0.638371c0,0.045601 0.050949,0.091202 0.101902,0.091202c0.101902,-0.091202 0.152851,-0.182404 0.254753,-0.273594c0.152851,-0.136791 0.254753,-0.319183 0.407608,-0.455978c-0.050953,0 -0.050953,-0.045601 -0.101906,-0.045601c-0.152851,-0.045597 -0.305702,-0.045597 -0.458553,0.045601z"/>
   <ellipse id="svg_49" fill="#23282d" ry="1.1" rx="1.1" transform="matrix(-0.232845, -0.40537, 0.452954, -0.208384, -29.3215, 110.296)" cy="36.521416" cx="96.883722"/>
   <path id="svg_50" fill="#23282d" d="m-33.192402,61.887913c-0.254757,0.136795 -0.356655,0.410385 -0.203804,0.638378c0.152855,0.227989 0.458561,0.319187 0.71331,0.227989c0.050953,0 0.050953,-0.045601 0.101902,-0.091198c0.050953,-0.091194 0.101906,-0.136791 0.152855,-0.227993c0.050953,-0.091194 0,-0.227989 -0.050949,-0.319183c-0.152855,-0.227993 -0.458557,-0.364792 -0.713314,-0.227993zm-2.751347,2.690304c-0.050953,0 -0.152851,0 -0.203804,0.045593l-0.152851,0.136795c-0.050949,0.045601 -0.101902,0.091202 -0.101902,0.182396c-0.050953,0.136795 -0.050953,0.227989 0.050953,0.364784l0.152851,0.136787c0.101902,0.091202 0.254753,0.136803 0.407604,0.091202c0.050953,0 0.152855,0 0.203804,-0.045593l0.152855,-0.136803c0.101902,-0.091194 0.152851,-0.227989 0.101902,-0.364784c0,-0.045593 0,-0.136787 -0.050953,-0.182388c-0.152851,-0.182396 -0.356655,-0.27359 -0.560459,-0.227989zm-7.54073,-7.478127c-0.254753,0.136795 -0.356655,0.410385 -0.203804,0.638374l0.152851,0.136795c0.101902,0.091198 0.254757,0.136799 0.407608,0.091198c0.050953,0 0.152855,0 0.203804,-0.045597l0.152855,-0.136795c0.101898,-0.091194 0.152851,-0.227989 0.101898,-0.364788c0,-0.045593 0,-0.136791 -0.050949,-0.182392c-0.050949,-0.136795 -0.203804,-0.182392 -0.305706,-0.227989c-0.2038,0 -0.356655,0 -0.458557,0.091194z"/>
   <ellipse id="svg_51" fill="#23282d" ry="1.1" rx="1.1" transform="matrix(-0.232845, -0.40537, 0.452954, -0.208384, -37.0804, 93.2054)" cy="22.421416" cx="77.783722"/>
   <ellipse id="svg_52" fill="#23282d" ry="1.1" rx="1.1" transform="matrix(-0.232845, -0.40537, 0.452954, -0.208384, -32.5253, 93.5039)" cy="20.021416" cx="82.483722"/>
   <ellipse id="svg_53" fill="#23282d" ry="1" rx="1.1" transform="matrix(-0.232845, -0.40537, 0.452954, -0.208384, -35.3098, 99.5394)" cy="28.221416" cx="83.783722"/>
   <ellipse id="svg_54" fill="#23282d" ry="1.1" rx="1.1" transform="matrix(0.232845, 0.40537, -0.452954, 0.208384, 3.9682, 47.209)" cy="95.378584" cx="-14.283722"/>
   <ellipse id="svg_55" fill="#23282d" ry="1" rx="1.1" transform="matrix(0.232845, 0.40537, -0.452954, 0.208384, 4.17252, 44.7212)" cy="92.978584" cx="-9.583722"/>
   <ellipse id="svg_56" fill="#23282d" ry="1.1" rx="1.1" transform="matrix(-0.232845, -0.40537, 0.452954, -0.208384, -37.4182, 97.3285)" cy="27.121416" cx="80.283722"/>
   <ellipse id="svg_57" fill="#23282d" ry="1.1" rx="1.1" transform="matrix(-0.232845, -0.40537, 0.452954, -0.208384, -32.8637, 97.6269)" cy="24.721416" cx="84.883722"/>
   <path id="svg_58" fill="#23282d" d="m-37.930832,65.763763c-0.152851,-0.136787 -0.407608,-0.136787 -0.611412,-0.045593c-0.254753,0.136787 -0.356655,0.410385 -0.203804,0.638374c0.152855,0.227989 0.458557,0.319191 0.713314,0.227989c0.254753,-0.136787 0.356655,-0.410378 0.203804,-0.638374c0,-0.091202 -0.050953,-0.136795 -0.101902,-0.182396zm1.019016,-2.462307c0.254757,-0.136795 0.356655,-0.410381 0.203804,-0.638374l-0.152851,-0.136791c-0.152855,-0.136799 -0.407608,-0.136799 -0.611412,-0.045605c-0.152851,0.045605 -0.203804,0.182396 -0.254753,0.273594c-0.050953,0.136795 -0.050953,0.227993 0.050949,0.364784c0.203804,0.227989 0.50951,0.319191 0.764263,0.182392z"/>
   <ellipse id="svg_59" fill="#23282d" ry="1.1" rx="1.1" transform="matrix(0.452954, -0.208384, 0.232845, 0.40537, -48.232, 57.2019)" cy="21.016278" cx="8.421416"/>
   <ellipse id="svg_60" fill="#23282d" ry="1.1" rx="1.1" transform="matrix(-0.232845, -0.40537, 0.452954, -0.208384, -38.4321, 109.697)" cy="41.321416" cx="87.483722"/>
   <ellipse id="svg_61" fill="#23282d" ry="1.1" rx="1.1" transform="matrix(-0.232845, -0.40537, 0.452954, -0.208384, -33.876, 109.997)" cy="38.921416" cx="92.183722"/>
   <ellipse id="svg_62" fill="#23282d" ry="1.1" rx="1.1" transform="matrix(-0.232845, -0.40537, 0.452954, -0.208384, -38.0938, 105.575)" cy="36.521416" cx="85.083722"/>
   <ellipse id="svg_63" fill="#23282d" ry="1.1" rx="1.1" transform="matrix(-0.232845, -0.40537, 0.452954, -0.208384, -33.5393, 105.873)" cy="34.121416" cx="89.783722"/>
   <path id="svg_64" fill="#23282d" d="m-40.529327,66.76693c-0.152851,-0.045601 -0.254753,-0.045601 -0.407608,0.045593c-0.152851,0.045601 -0.203804,0.182396 -0.254753,0.273598s-0.050953,0.227989 0.050949,0.364784c0.050953,0.136795 0.203804,0.182396 0.305706,0.227989c0.152855,0.045601 0.254757,0.045601 0.407608,-0.045593l0.152855,-0.136803c0.050949,-0.045593 0.101902,-0.091194 0.101902,-0.182388c0,-0.045601 0.050949,-0.136795 0,-0.182396c0,-0.045593 0,-0.136795 -0.050953,-0.182396c-0.050949,-0.045593 -0.152855,-0.136795 -0.305706,-0.182388zm2.496593,-6.383762c-0.152855,-0.136795 -0.407608,-0.136795 -0.611412,-0.045597c-0.152851,0.045597 -0.2038,0.182392 -0.254753,0.27359c0,0.045601 -0.050953,0.136795 0,0.182392c0,0.045597 0,0.136795 0.050953,0.182392c0.050949,0.136795 0.2038,0.182392 0.305702,0.227993c0.050953,0 0.152855,0.045597 0.203804,0c0.050949,0 0.152851,0 0.203804,-0.045601c0.152855,-0.045597 0.203804,-0.182392 0.254753,-0.27359c0.050953,-0.136791 0.050953,-0.227985 -0.050949,-0.364784c0,-0.045597 -0.050949,-0.136795 -0.101902,-0.136795zm-3.0061,1.003166c-0.254757,0.136791 -0.356659,0.410378 -0.203808,0.638374l0.152855,0.136795c0.101902,0.091194 0.254753,0.136795 0.407608,0.091194c0.050949,0 0.152851,0 0.203804,-0.045597c0.254753,-0.136795 0.356655,-0.410389 0.203804,-0.638374c-0.152855,-0.182392 -0.458561,-0.27359 -0.764263,-0.182392zm1.936131,5.927776c-0.254753,0.136795 -0.356655,0.410385 -0.203804,0.638374c0.101902,0.182388 0.305706,0.27359 0.50951,0.27359l0.458557,-0.27359c0.050949,-0.136795 0.050949,-0.27359 0,-0.410385c-0.203804,-0.227989 -0.509506,-0.319183 -0.764263,-0.227989zm2.343739,-1.09436c-0.254753,0.136795 -0.356651,0.410385 -0.2038,0.638374l0.050949,0.045601c0.254757,-0.182396 0.50951,-0.410385 0.815216,-0.592781c-0.203804,-0.136787 -0.407608,-0.182388 -0.662365,-0.091194zm-9.120205,-8.025299l-0.152851,0.136795c-0.050953,0.045597 -0.101902,0.091198 -0.101902,0.182392c-0.050949,0.136795 -0.050949,0.227989 0.050949,0.364788l0.152855,0.136791c0.101902,0.091202 0.254753,0.136799 0.407604,0.091202c0.050953,0 0.152855,0 0.203804,-0.045601c0.152855,-0.045601 0.203804,-0.182392 0.254753,-0.27359c0.050953,-0.136795 0.050953,-0.227989 -0.050949,-0.364784c-0.101902,-0.182392 -0.305706,-0.27359 -0.50951,-0.27359c-0.101898,0 -0.2038,0 -0.254753,0.045597zm6.725517,9.119659c-0.152855,0.045593 -0.203804,0.182388 -0.254753,0.27359c-0.050953,0.136795 -0.050953,0.227989 0.050949,0.364784c0.050949,0.136795 0.203804,0.182388 0.305702,0.227989c0.152855,0.045601 0.254757,0.045601 0.407608,-0.045601l0.152855,-0.136787c0.152851,-0.136795 0.152851,-0.364784 0.050949,-0.54718c-0.101902,-0.182396 -0.407604,-0.27359 -0.71331,-0.136795zm3.566559,-4.331837c-0.254753,0.136791 -0.356655,0.410381 -0.203804,0.638371c0.050953,0.136799 0.203804,0.1824 0.305706,0.227997c0.152855,0.045593 0.254753,0.045593 0.407608,-0.045597c0.254753,-0.136795 0.356655,-0.410389 0.2038,-0.638382c-0.152851,-0.227989 -0.458553,-0.319183 -0.71331,-0.182388z"/>
   <ellipse id="svg_65" fill="#23282d" ry="1" rx="1.1" transform="matrix(-0.232845, -0.40537, 0.452954, -0.208384, -43.7447, 90.6953)" cy="23.621416" cx="69.583722"/>
   <ellipse id="svg_66" fill="#23282d" ry="1.1" rx="1.1" transform="matrix(-0.232845, -0.40537, 0.452954, -0.208384, -46.1914, 92.6071)" cy="27.221416" cx="68.483722"/>
   <ellipse id="svg_67" fill="#23282d" ry="1.1" rx="1.1" transform="matrix(-0.232845, -0.40537, 0.452954, -0.208384, -41.6359, 92.9063)" cy="24.821416" cx="73.183722"/>
   <path id="svg_68" fill="#23282d" d="m-44.656349,60.33757c-0.254753,0.136795 -0.356655,0.410385 -0.2038,0.638374s0.458557,0.319191 0.71331,0.227993c0.254753,-0.136795 0.356655,-0.410385 0.203804,-0.638374c-0.101902,-0.27359 -0.407608,-0.364792 -0.713314,-0.227993z"/>
   <ellipse id="svg_69" fill="#23282d" ry="1.1" rx="1.1" transform="matrix(0.232845, 0.40537, -0.452954, 0.208384, 2.25627, 50.8491)" cy="96.578584" cx="-22.483722"/>
   <ellipse id="svg_70" fill="#23282d" ry="1.1" rx="1.1" transform="matrix(-0.232845, -0.40537, 0.452954, -0.208384, -46.866, 100.854)" cy="36.621416" cx="73.283722"/>
   <ellipse id="svg_71" fill="#23282d" ry="1" rx="1.1" transform="matrix(0.232845, 0.40537, -0.452954, 0.208384, 3.76493, 49.6978)" cy="97.778584" cx="-18.983722"/>
   <ellipse id="svg_72" fill="#23282d" ry="1.1" rx="1.1" transform="matrix(-0.232845, -0.40537, 0.452954, -0.208384, -46.5292, 96.7302)" cy="31.921416" cx="70.883722"/>
   <ellipse id="svg_73" fill="#23282d" ry="1.1" rx="1.1" transform="matrix(-0.232845, -0.40537, 0.452954, -0.208384, -41.9737, 97.0297)" cy="29.521416" cx="75.583722"/>
   <path id="svg_74" fill="#23282d" d="m-49.394779,62.526291c-0.254753,0.136791 -0.356655,0.410381 -0.203804,0.638371c0.050953,0.136795 0.203804,0.182392 0.305706,0.227993c0.152855,0.045601 0.254753,0.045601 0.407608,-0.045601c0.254753,-0.136791 0.356655,-0.410381 0.203804,-0.638374c-0.101902,-0.227993 -0.458557,-0.319187 -0.713314,-0.182388zm6.317909,5.334999c-0.050953,0 -0.152851,0 -0.203804,0.045593c-0.203804,0.091202 -0.305706,0.27359 -0.305706,0.455986c0,0.045593 0,0.136795 0.050949,0.182388c0.152855,0.227997 0.458561,0.319191 0.713314,0.227997c0.254753,-0.136795 0.356659,-0.410385 0.203804,-0.638382c-0.050953,-0.227989 -0.254757,-0.319183 -0.458557,-0.273582zm1.426624,-2.371109c0.254753,-0.136803 0.356655,-0.410385 0.203804,-0.638374c-0.152855,-0.227997 -0.458557,-0.319191 -0.713314,-0.227997c-0.254753,0.136795 -0.356655,0.410378 -0.203804,0.638374c0.101902,0.27359 0.458561,0.364792 0.713314,0.227997z"/>
   <ellipse id="svg_75" fill="#23282d" ry="1.1" rx="1.1" transform="matrix(0.452954, -0.208384, 0.232845, 0.40537, -49.8772, 55.4974)" cy="25.816278" cx="-0.978584"/>
   <ellipse id="svg_76" fill="#23282d" ry="1.1" rx="1.1" transform="matrix(-0.232845, -0.40537, 0.452954, -0.208384, -47.5421, 109.1)" cy="46.121416" cx="78.183722"/>
   <ellipse id="svg_77" fill="#23282d" ry="1.1" rx="1.1" transform="matrix(-0.232845, -0.40537, 0.452954, -0.208384, -42.9876, 109.398)" cy="43.721416" cx="82.883722"/>
   <ellipse id="svg_78" fill="#23282d" ry="1.1" rx="1.1" transform="matrix(0.452954, -0.208384, 0.232845, 0.40537, -49.8074, 54.6994)" cy="24.616278" cx="-4.478584"/>
   <ellipse id="svg_79" fill="#23282d" ry="1.1" rx="1.1" transform="matrix(-0.232845, -0.40537, 0.452954, -0.208384, -42.6498, 105.275)" cy="38.921416" cx="80.383722"/>
   <path id="svg_80" fill="#23282d" d="m-44.962051,69.18364l-0.152855,-0.136795c-0.050949,-0.045601 -0.101902,-0.091202 -0.203804,-0.091202c-0.152851,-0.045593 -0.254753,-0.045593 -0.407604,0.045601l-0.152855,0.136803c-0.101902,0.091194 -0.152851,0.227989 -0.101902,0.364777c0,0.045601 0,0.136795 0.050953,0.182396c0.101902,0.182396 0.305702,0.273582 0.509506,0.273582c0.050953,0 0.152855,0 0.203804,-0.045593l0.152851,-0.136795c0.050953,-0.045601 0.101906,-0.091194 0.101906,-0.182388c0.101902,-0.136795 0.050949,-0.273598 0,-0.410385zm-1.52853,-2.371117c-0.152851,-0.045593 -0.254753,-0.045593 -0.407604,0.045601c-0.254753,0.136795 -0.356655,0.410385 -0.203804,0.638374s0.458557,0.319191 0.713314,0.227997c0.254753,-0.136795 0.356655,-0.410385 0.203804,-0.638374c-0.101906,-0.136803 -0.203804,-0.227997 -0.30571,-0.273598zm3.566563,-3.465469c0.152855,-0.045597 0.203804,-0.182392 0.254753,-0.273586s0.050953,-0.227989 -0.050949,-0.364788c-0.050949,-0.136791 -0.203804,-0.182388 -0.305706,-0.227993c-0.152851,-0.045597 -0.254753,-0.045597 -0.407608,0.045605c-0.254753,0.136791 -0.356655,0.410381 -0.2038,0.638371c0.101898,0.182392 0.305706,0.273594 0.509506,0.273594c0.101902,-0.045601 0.152855,-0.045601 0.203804,-0.091202zm-2.853249,0.227993c-0.254753,0.136799 -0.356655,0.410385 -0.203804,0.638378c0.152855,0.227989 0.458557,0.319191 0.713314,0.227989c0.2038,-0.091194 0.305706,-0.27359 0.305706,-0.455982c0,-0.045597 0,-0.136791 -0.050953,-0.182388c-0.152851,-0.227997 -0.50951,-0.319191 -0.764263,-0.227997zm1.885181,5.927776c-0.254753,0.136795 -0.356655,0.410385 -0.2038,0.638382c0.050949,0.091194 0.152851,0.182396 0.305702,0.227989c0.203804,-0.045593 0.356655,-0.091202 0.560463,-0.136795c0.152851,-0.136795 0.2038,-0.364784 0.050949,-0.54718c-0.101902,-0.182396 -0.407608,-0.27359 -0.713314,-0.182396z"/>
   <ellipse id="svg_81" fill="#23282d" ry="1.1" rx="1.1" transform="matrix(-0.232845, -0.40537, 0.452954, -0.208384, -43.3254, 113.522)" cy="48.421416" cx="85.283722"/>
   <path id="svg_82" fill="#23282d" d="m-50.617599,60.383167c-0.152855,0.045601 -0.203804,0.182396 -0.254753,0.273594c-0.050953,0.136791 -0.050953,0.227985 0.050949,0.364784c0.050949,0.136791 0.203804,0.182392 0.305706,0.227989s0.254753,0.045601 0.407608,-0.045597l0.152851,-0.136795c0.050949,-0.045597 0.101902,-0.091198 0.101902,-0.182396c0,-0.045597 0.050949,-0.136791 0,-0.182388s0,-0.136795 -0.050953,-0.182396l-0.152851,-0.136795c-0.050949,-0.045597 -0.101902,-0.091194 -0.203804,-0.091194s-0.254753,0 -0.356655,0.091194zm-1.528526,-1.687138c0,0.045597 0,0.136799 0.050949,0.182396c0.152855,0.227993 0.458557,0.319191 0.713314,0.227993c0.203804,-0.091202 0.305706,-0.27359 0.305706,-0.455986c0,-0.045597 0,-0.136795 -0.050953,-0.182392l-0.152851,-0.136795c-0.101902,-0.091194 -0.254757,-0.136795 -0.407608,-0.091194c-0.050949,0 -0.152851,0 -0.203804,0.045597c-0.152851,0.045597 -0.254753,0.227989 -0.254753,0.410381z"/>
   <ellipse id="svg_83" fill="#23282d" ry="1.1" rx="1.1" transform="matrix(0.452954, -0.208384, 0.232845, 0.40537, -47.6684, 50.8149)" cy="11.716278" cx="-19.978584"/>
   <path id="svg_84" fill="#23282d" d="m-54.79557,60.930347c-0.101902,0.045597 -0.152855,0.091198 -0.203804,0.182392c0.152851,0.227997 0.254753,0.501583 0.407608,0.729576c0.101902,0 0.203804,0 0.305706,-0.045605c0.254753,-0.136791 0.356655,-0.410378 0.2038,-0.638374c-0.152851,-0.227989 -0.458557,-0.319187 -0.71331,-0.227989z"/>
   <ellipse id="svg_85" fill="#23282d" ry="1.1" rx="1.1" transform="matrix(-0.232845, -0.40537, 0.452954, -0.208384, -50.7464, 92.3083)" cy="29.621416" cx="63.783722"/>
   <path id="svg_86" fill="#23282d" d="m-56.069344,58.787228c-0.050949,0 -0.050949,0.045601 -0.050949,0.045601c0.101902,0.27359 0.254753,0.547176 0.407604,0.866364c0.050953,0 0.101902,0 0.152855,-0.045597c0.254753,-0.136791 0.356655,-0.410381 0.203804,-0.638378c-0.101906,-0.27359 -0.458561,-0.364784 -0.713314,-0.227989z"/>
   <ellipse id="svg_87" fill="#23282d" ry="1" rx="1.1" transform="matrix(0.232845, 0.40537, -0.452954, 0.208384, -5.07913, 54.1208)" cy="88.378584" cx="-35.583722"/>
   <path id="svg_88" fill="#23282d" d="m-50.515697,65.763763c-0.203804,0.091194 -0.305706,0.27359 -0.305706,0.455986c0,0.045601 0,0.136795 0.050949,0.182396l0.152855,0.136787c0.101902,0.091202 0.254753,0.136803 0.407608,0.091202c0.050949,0 0.152851,0 0.203804,-0.045601c0.254753,-0.136787 0.356655,-0.410378 0.2038,-0.638374c-0.152851,-0.182396 -0.458557,-0.27359 -0.71331,-0.182396z"/>
   <ellipse id="svg_89" fill="#23282d" ry="1" rx="1.1" transform="matrix(-0.232845, -0.40537, 0.452954, -0.208384, -53.5314, 98.3435)" cy="37.821416" cx="65.083722"/>
   <path id="svg_90" fill="#23282d" d="m-52.34993,65.262184l-0.050953,0.045601c0.203804,0.27359 0.407608,0.547173 0.611412,0.775169c0.203804,-0.136795 0.305706,-0.410385 0.152851,-0.592773c-0.101898,-0.273598 -0.458557,-0.364792 -0.71331,-0.227997z"/>
   <ellipse id="svg_91" fill="#23282d" ry="1.1" rx="1.1" transform="matrix(0.452954, -0.208384, 0.232845, 0.40537, -49.6657, 53.1017)" cy="22.316278" cx="-11.578584"/>
   <path id="svg_92" fill="#23282d" d="m-53.57275,63.073467c-0.101902,0.045597 -0.152855,0.091194 -0.203804,0.182392c0.152851,0.227993 0.305706,0.501583 0.458557,0.729572c0.050949,0 0.152851,0 0.203804,-0.045597c0.254753,-0.136791 0.356655,-0.410381 0.203804,-0.638378c-0.101902,-0.227989 -0.407608,-0.319183 -0.662361,-0.227989z"/>
   <ellipse id="svg_93" fill="#23282d" ry="1.1" rx="1.1" transform="matrix(0.452954, -0.208384, 0.232845, 0.40537, -48.7023, 52.3575)" cy="17.616278" cx="-14.078584"/>
   <path id="svg_94" fill="#23282d" d="m-52.298981,61.65992c-0.050949,-0.136795 -0.2038,-0.182392 -0.305702,-0.227989c-0.152855,-0.045597 -0.254757,-0.045597 -0.407608,0.045597c-0.203804,0.091198 -0.305706,0.273586 -0.305706,0.455982c0,0.045601 0,0.136795 0.050949,0.182396c0.152855,0.227989 0.458561,0.319183 0.713314,0.227989c0.305706,-0.136795 0.407608,-0.410385 0.254753,-0.683975zm3.006104,6.292564c-0.203804,0.091194 -0.254753,0.227989 -0.305706,0.410385c0.203804,0.182388 0.407608,0.319183 0.611412,0.501579c0.050949,0 0.101902,0 0.152851,-0.045593c0.254753,-0.136803 0.356659,-0.410393 0.203804,-0.638382c-0.101902,-0.27359 -0.407608,-0.364784 -0.662361,-0.227989z"/>
   <ellipse id="svg_95" fill="#23282d" ry="1.1" rx="1.1" transform="matrix(-0.232845, -0.40537, 0.452954, -0.208384, -52.0986, 108.801)" cy="48.521416" cx="73.483722"/>
   <path id="svg_96" fill="#23282d" d="m-50.56665,67.450905c0.050953,0.045593 0.101906,0.136795 0.203804,0.182396c-0.050949,-0.091202 -0.152851,-0.136803 -0.203804,-0.182396z"/>
   <ellipse id="svg_97" fill="#23282d" ry="1.1" rx="1.1" transform="matrix(-0.232845, -0.40537, 0.452954, -0.208384, -51.7598, 104.678)" cy="43.721416" cx="71.083722"/>
   <path id="svg_98" fill="#23282d" d="m-47.662449,65.535774c0.152851,-0.045593 0.203804,-0.182396 0.254753,-0.27359c0.050949,-0.136795 0.050949,-0.227997 -0.050949,-0.364784c-0.050953,-0.136795 -0.152855,-0.227997 -0.305706,-0.227997c-0.050953,0 -0.152851,-0.045593 -0.203804,0c-0.050949,0 -0.152851,0 -0.203804,0.045601l-0.152851,0.136803c-0.050953,0.045593 -0.101902,0.091194 -0.101902,0.182381c-0.050949,0.136803 -0.050949,0.227997 0.050949,0.364792c0.152855,0.182396 0.458561,0.27359 0.713314,0.136795z"/>
  </g>
  <g id="svg_195">
   <path id="svg_103" fill="#ffffff" d="m27.800642,12.312228l0,-0.121702c0,-0.03043 -0.030684,-0.03043 -0.030684,-0.03043c0,-0.030425 -0.030685,-0.030425 -0.030685,-0.06085l-0.030676,-0.030425c-0.030684,0 -0.030684,-0.03043 -0.061361,-0.03043l-0.122725,0c-0.52157,0 -0.951099,-0.212982 -1.319267,-0.517246c0.092043,-0.030422 0.122719,-0.121702 0.153402,-0.182553c0.030684,-0.09128 0.030684,-0.152134 -0.030684,-0.243411c-0.030676,-0.091279 -0.122719,-0.121704 -0.18408,-0.152131c-0.092043,-0.030429 -0.153406,-0.030429 -0.245445,0.030427c-0.061359,0.030425 -0.092045,0.06085 -0.122725,0.121704c-0.214766,-0.304261 -0.429529,-0.638952 -0.613611,-1.004068c0.092041,0.060854 0.214764,0.060854 0.30681,0c0.153397,-0.091277 0.214764,-0.273833 0.122717,-0.425965c-0.092041,-0.15213 -0.276121,-0.212985 -0.429527,-0.15213c-0.092041,0.060851 -0.153408,0.15213 -0.153408,0.243411l-0.276121,-0.547672l-0.276131,-0.547673c0.092047,0.030425 0.184088,0.030425 0.276131,0c0.153402,-0.091281 0.214764,-0.273837 0.122723,-0.425968l-0.092041,-0.09128c-0.092043,-0.091277 -0.245445,-0.091277 -0.368172,-0.030425c-0.092043,0.060851 -0.1534,0.121705 -0.1534,0.212982c-0.337484,-0.638952 -0.736336,-1.217049 -1.196547,-1.612591c0.030678,-0.09128 0.030678,-0.152131 -0.030682,-0.243411c-0.092043,-0.152131 -0.276125,-0.212982 -0.429529,-0.152131c-0.030682,0 -0.030682,0.030426 -0.061363,0.060854c-0.184086,-0.09128 -0.368166,-0.15213 -0.552254,-0.18256c0,-0.030425 0,-0.06085 -0.030676,-0.091276l-0.092043,-0.09128c-0.030685,-0.030426 -0.061359,-0.060854 -0.122726,-0.060854c-0.092035,-0.030422 -0.153402,-0.030422 -0.245438,0.030428l-0.092045,0.09128c-0.030684,0.030426 -0.061363,0.060852 -0.061363,0.121702c-0.429529,0.03043 -0.797695,0.212986 -1.165867,0.517248c-0.030678,0 -0.092037,0 -0.122723,0.030425c-0.092043,0.060855 -0.153402,0.121706 -0.153402,0.243411c-0.429529,0.425968 -0.828375,1.034492 -1.196548,1.703871c-0.092041,-0.152131 -0.276123,-0.212985 -0.429525,-0.121706c-0.153402,0.091281 -0.214767,0.273837 -0.122726,0.425968c0.061365,0.121705 0.184086,0.182556 0.30681,0.182556c-0.092043,0.152131 -0.153404,0.304261 -0.245445,0.456393c-0.092041,-0.030425 -0.184086,-0.030425 -0.276129,0l-0.03068,0.030428c-0.184082,-0.060853 -0.398846,-0.121704 -0.613611,-0.15213c0,-0.03043 0,-0.060855 -0.030682,-0.060855c-0.092043,-0.15213 -0.276129,-0.212981 -0.429533,-0.15213c-0.061359,0.030425 -0.092039,0.060854 -0.122719,0.09128c-0.153404,-0.030426 -0.33749,-0.060855 -0.521574,-0.09128l0,-0.121706c0,-0.030426 0,-0.091276 -0.030678,-0.121705c-0.030682,-0.091277 -0.122728,-0.121706 -0.184091,-0.152127c-0.092039,-0.03043 -0.153402,-0.03043 -0.245441,0.030421l-0.09204,0.091281c-0.030684,0.030425 -0.061367,0.060854 -0.061367,0.121704l0,0.121706c-0.245439,-0.030425 -0.460208,-0.030425 -0.736333,-0.06085c0.030682,0 0.061361,0 0.122721,-0.03043c0.153404,-0.091276 0.214767,-0.273832 0.122727,-0.425967c-0.092044,-0.152131 -0.276131,-0.212982 -0.429535,-0.152131c-0.153402,0.09128 -0.214763,0.273836 -0.122719,0.425968c0.06136,0.091279 0.153404,0.15213 0.245446,0.15213c-0.245446,0 -0.490891,-0.030426 -0.767016,-0.030426l-0.36817,0c-0.061362,-0.15213 -0.122722,-0.334686 -0.184082,-0.486817c0.09204,0.152131 0.276123,0.182556 0.429525,0.121701c0.153403,-0.091276 0.214763,-0.273832 0.122726,-0.425967c-0.092044,-0.152131 -0.276129,-0.212982 -0.429532,-0.152131c-0.12272,0.060855 -0.184083,0.18256 -0.184083,0.304266c-0.153402,-0.395542 -0.276126,-0.76066 -0.429529,-1.156202c0.06136,0 0.092044,0 0.153403,-0.030426l0.092044,-0.091276c0.092043,-0.09128 0.092043,-0.243411 0.03068,-0.365116c-0.092044,-0.152131 -0.276127,-0.212986 -0.42953,-0.152131c-0.030684,0 -0.06136,0.030425 -0.06136,0.060854c-1.472674,-3.742429 -2.945345,-6.602496 -4.755506,-6.602496c-4.602101,0 -7.670168,11.622826 -7.792889,12.14007l0,0.152134c0,0.030425 0,0.030425 0.03068,0.060851c0,0.030426 0.03068,0.030426 0.03068,0.060851l0.030682,0.030429l0.03068,0.030422c0.030682,0 0.030682,0.030428 0.061362,0.030428l0.184085,0c0,0.030427 0.03068,0.060852 0.03068,0.091281l0.092042,-0.091281l0.552253,0c-0.03068,0.030427 -0.03068,0.060852 -0.061362,0.091281c-0.03068,0.091279 -0.03068,0.152131 0.030681,0.243407c0.092042,0.152135 0.276126,0.212985 0.429529,0.152135c0.092042,-0.030429 0.122723,-0.12171 0.153403,-0.18256c0.03068,-0.091281 0.03068,-0.152131 -0.03068,-0.243411c0,-0.030425 -0.030682,-0.060852 -0.061363,-0.060852c0.736337,-0.030428 1.380631,-0.091279 1.963564,-0.182556c0,0.060852 0,0.121706 0.030679,0.182556c0.092044,0.152132 0.276127,0.212982 0.42953,0.152132c0.153403,-0.09128 0.214765,-0.273836 0.122723,-0.425967c0.398849,-0.09128 0.767018,-0.182557 1.104504,-0.273837c0.061362,0 0.122723,0 0.184085,-0.030425c0.03068,0 0.03068,-0.030425 0.061362,-0.060855c0.767017,-0.243407 1.411311,-0.517246 2.055606,-0.821505c-0.061362,0.091276 -0.092044,0.243406 -0.03068,0.334687c0.092041,0.15213 0.276126,0.212981 0.429529,0.15213c0.153402,-0.09128 0.214763,-0.273832 0.122723,-0.425966c-0.061363,-0.121706 -0.153402,-0.152132 -0.276125,-0.182557c0.368165,-0.18256 0.736335,-0.334691 1.104502,-0.486821c-0.030682,0.060855 0,0.15213 0.030681,0.212985c0.061361,0.121705 0.184085,0.182557 0.306808,0.182557c0.03068,0 0.092041,0 0.122724,-0.030425l0.092039,-0.091281c0.030683,-0.030426 0.030683,-0.030426 0.030683,-0.060851c0.153403,0.334687 0.306806,0.638948 0.460209,0.973639c-0.06136,0 -0.122722,0 -0.153403,0.030425c-0.122722,0.060852 -0.184084,0.182557 -0.184084,0.304262c0,0.030425 0,0.09128 0.030682,0.121702c0.061361,0.121709 0.184084,0.18256 0.306806,0.18256c0.030682,0 0.092043,0 0.122725,-0.030425l0.092039,-0.09128s0,-0.030426 0.030682,-0.030426c0.184085,0.334691 0.337488,0.638953 0.521571,0.943214c-0.06136,0 -0.122724,0 -0.184083,0.030425c-0.092043,0.030425 -0.122724,0.121707 -0.153403,0.182557c-0.03068,0.091281 -0.03068,0.152131 0.03068,0.243411c0.092043,0.15213 0.276127,0.212987 0.42953,0.15213c0.092043,-0.030425 0.122723,-0.121703 0.153402,-0.182556c0.398849,0.608523 0.82838,1.125768 1.288588,1.46046c-0.092039,0.091278 -0.122722,0.243406 -0.061358,0.365116c0.092039,0.15213 0.276125,0.212982 0.429528,0.15213c0.06136,-0.03043 0.122721,-0.09128 0.153404,-0.18256c0.153403,0.060856 0.306807,0.121706 0.490889,0.15213c-0.03068,0.091282 -0.03068,0.152134 0.03068,0.243412c0.092044,0.15213 0.276126,0.212979 0.429529,0.15213c0.122724,-0.06085 0.184083,-0.21298 0.153406,-0.33469c0.398843,-0.030422 0.767016,-0.152126 1.104501,-0.365112l0.030682,0c1.441995,3.620717 2.914664,6.359082 4.724822,6.359082c4.663467,0 7.67017,-8.762756 7.792894,-9.127869l0,-0.060851c0.153406,-0.121709 0.153406,-0.152134 0.153406,-0.152134zm-6.289543,-5.659283c1.288591,0 1.963566,1.338757 2.66922,2.768792c0.460211,0.943215 0.951103,1.916855 1.656759,2.525374c-2.730583,-0.182556 -4.172575,-0.851931 -5.583889,-1.490883c-0.490887,-0.212982 -0.981775,-0.456393 -1.534029,-0.638949c0.828375,-1.673445 1.718119,-3.164334 2.791939,-3.164334zm-7.516762,2.981774c1.687436,0 2.883984,0.212985 3.896444,0.517247c-0.061363,0.09128 -0.092041,0.212986 -0.153404,0.304262c-0.674974,1.430033 -1.38063,2.860066 -2.209007,3.712c-0.460209,-1.156197 -0.889744,-2.373244 -1.319269,-3.529444c-0.122727,-0.334687 -0.245446,-0.669375 -0.36817,-1.034491c0.061362,0.030425 0.092043,0.030425 0.153406,0.030425zm-11.137085,-3.16433c1.687437,-3.772853 3.466918,-5.780985 5.123672,-5.780985c1.7488,0 3.466918,4.137969 5.000954,8.367217c-1.319273,0.060854 -2.301055,0.273836 -3.160113,0.547673c-0.9511,-1.916854 -1.9022,-3.559872 -3.344193,-3.559872c-1.656756,0 -2.423771,1.551738 -3.160109,3.073053c-0.644294,1.338754 -1.257906,2.616654 -2.454453,2.829637c0.276126,-0.88236 0.981782,-3.194753 1.994244,-5.476722zm-0.644294,5.476722c0.736336,-0.638948 1.227227,-1.643014 1.656756,-2.555799c0.674975,-1.39961 1.319268,-2.738367 2.607857,-2.738367c1.073824,0 1.932881,1.490889 2.761261,3.164334c-0.552253,0.212981 -1.043142,0.425967 -1.534033,0.669378c-1.38063,0.608523 -2.822622,1.277898 -5.491841,1.460454zm8.038336,-1.490883c-0.061361,-0.091276 -0.092039,-0.212982 -0.153403,-0.304262c0.82838,-0.273833 1.840841,-0.456393 3.12943,-0.486819c0.153402,0.395542 0.306806,0.82151 0.429528,1.217049c0.460209,1.277901 0.92042,2.555803 1.380628,3.742425c-0.337489,0.243411 -0.674971,0.365115 -1.043139,0.365115c-1.564713,-0.030424 -2.669219,-2.312392 -3.743044,-4.533507zm9.756454,10.497053c-1.47267,0 -2.883982,-2.799219 -4.233936,-6.146104c0.981785,-0.912781 1.7488,-2.494949 2.51582,-4.046688l0.184082,-0.365112c0.552252,0.212982 1.043146,0.425967 1.534035,0.638949c1.656755,0.760657 3.405552,1.551738 7.087234,1.612589c-0.644293,1.643022 -3.374872,8.306366 -7.087234,8.306366z"/>
   <ellipse id="svg_104" fill="#ffffff" ry="1.1" rx="1.1" transform="matrix(0.140211, 0.270489, -0.272751, 0.139048, 16.3829, -15.9805)" cy="12.756682" cx="56.64503"/>
   <ellipse id="svg_105" fill="#ffffff" ry="1.1" rx="1.1" transform="matrix(0.140211, 0.270489, -0.272751, 0.139048, 17.168, -15.0887)" cy="16.356682" cx="55.54503"/>
   <path id="svg_106" fill="#ffffff" d="m22.063353,1.784749c0.122723,-0.060853 0.184086,-0.212983 0.153402,-0.334689c-0.092041,-0.091278 -0.214764,-0.182556 -0.306805,-0.243409c-0.061361,0 -0.092047,0 -0.153404,0.030425c-0.153402,0.091278 -0.214764,0.273836 -0.122719,0.425967c0.092035,0.121705 0.276123,0.182558 0.429525,0.121705z"/>
   <ellipse id="svg_107" fill="#ffffff" ry="1.1" rx="1.1" transform="matrix(0.140211, 0.270489, -0.272751, 0.139048, 15.4753, -15.2122)" cy="11.656682" cx="53.04503"/>
   <path id="svg_108" fill="#ffffff" d="m22.738329,5.466322c0,0.030426 0,0.09128 0.030678,0.121706c0.092047,0.152131 0.276129,0.212981 0.429533,0.152131c0.153404,-0.091277 0.21476,-0.273837 0.122721,-0.425968c-0.03068,-0.091276 -0.122721,-0.121705 -0.184082,-0.15213c-0.092043,-0.030426 -0.153404,-0.030426 -0.245451,0.030425c-0.092037,0.030429 -0.153399,0.152131 -0.153399,0.273836zm0.920418,-1.886425c0.092043,0.030428 0.153404,0.030428 0.245451,-0.030425l0.030674,-0.030426c-0.061357,-0.121706 -0.122721,-0.212986 -0.214762,-0.304264c-0.061363,-0.060853 -0.092045,-0.152131 -0.153402,-0.212984c-0.122723,0.091279 -0.184088,0.273837 -0.122723,0.425969c0.061361,0.060851 0.122723,0.121704 0.214762,0.152129z"/>
   <ellipse id="svg_109" fill="#ffffff" ry="1.1" rx="1.1" transform="matrix(-0.272751, 0.139048, -0.140211, -0.270489, 48.1162, 5.30633)" cy="42.25497" cx="72.856682"/>
   <ellipse id="svg_110" fill="#ffffff" ry="1.1" rx="1.1" transform="matrix(-0.140211, -0.270489, 0.272751, -0.139048, 25.4266, 34.6938)" cy="34.543318" cx="91.65497"/>
   <ellipse id="svg_111" fill="#ffffff" ry="1" rx="1.1" transform="matrix(0.140211, 0.270489, -0.272751, 0.139048, 20.6778, -16.5029)" cy="23.456682" cx="65.04503"/>
   <ellipse id="svg_112" fill="#ffffff" ry="1.1" rx="1.1" transform="matrix(-0.272751, 0.139048, -0.140211, -0.270489, 45.8958, 5.13169)" cy="41.05497" cx="69.256682"/>
   <ellipse id="svg_113" fill="#ffffff" ry="1" rx="1.1" transform="matrix(0.140211, 0.270489, -0.272751, 0.139048, 18.9846, -16.6261)" cy="18.656682" cx="62.64503"/>
   <path id="svg_114" fill="#ffffff" d="m21.050892,5.00993c0.1534,-0.09128 0.214762,-0.273837 0.122723,-0.425968c-0.092039,-0.15213 -0.276127,-0.212985 -0.429529,-0.15213c-0.153404,0.091276 -0.214764,0.273836 -0.122725,0.425967c0.061363,0.182556 0.245447,0.243411 0.429531,0.152131zm1.871519,-2.860066c-0.061357,-0.060853 -0.092039,-0.121706 -0.153404,-0.182559c-0.030678,-0.030425 -0.061359,-0.060851 -0.061359,-0.091278c0,0.030427 0,0.060853 0.030682,0.091278c0.030678,0.09128 0.092043,0.152133 0.184082,0.182559zm-1.196548,0.699804c0.122726,-0.060852 0.184088,-0.182558 0.184088,-0.304264c0,-0.030426 0,-0.091278 -0.03068,-0.121704c-0.092041,-0.152131 -0.276127,-0.212984 -0.429529,-0.152131c-0.153404,0.091278 -0.214764,0.273835 -0.122725,0.425966c0.061363,0.182559 0.245443,0.243411 0.398846,0.152133zm3.681681,3.590295l0.030685,-0.030425c-0.092045,-0.182556 -0.184086,-0.365116 -0.245449,-0.578098c-0.030678,0 -0.061357,0 -0.061357,0.030425c-0.092043,0.030425 -0.122728,0.121705 -0.153404,0.182557c-0.030682,0.09128 -0.030682,0.15213 0.030676,0.24341c0.030685,0.152131 0.214767,0.212986 0.398849,0.152131z"/>
   <ellipse id="svg_115" fill="#ffffff" ry="1" rx="1.1" transform="matrix(-0.140211, -0.270489, 0.272751, -0.139048, 26.4921, 38.9206)" cy="40.343318" cx="97.65497"/>
   <ellipse id="svg_116" fill="#ffffff" ry="1.1" rx="1.1" transform="matrix(-0.272751, 0.139048, -0.140211, -0.270489, 54.4763, 10.2363)" cy="52.85497" cx="81.256682"/>
   <ellipse id="svg_117" fill="#ffffff" ry="1.1" rx="1.1" transform="matrix(-0.272751, 0.139048, -0.140211, -0.270489, 52.4063, 7.85849)" cy="48.15497" cx="78.756682"/>
   <path id="svg_118" fill="#ffffff" d="m24.395082,5.00993c0.092043,0.030425 0.153406,0.030425 0.245447,-0.030426c0.030682,-0.030429 0.061359,-0.030429 0.061359,-0.060854c-0.061359,-0.091277 -0.092045,-0.182557 -0.1534,-0.273837c-0.061363,-0.091276 -0.092047,-0.182556 -0.153406,-0.273836c-0.030678,0 -0.061361,0 -0.092043,0.030429c-0.092037,0.030426 -0.122721,0.121702 -0.153404,0.182556c-0.030676,0.09128 -0.030676,0.152131 0.030684,0.243411c0.061363,0.121702 0.153402,0.152131 0.214764,0.182557zm2.14765,4.259676c-0.030682,-0.121706 -0.092043,-0.24341 -0.122726,-0.365112c0,0.030421 -0.030676,0.091276 0,0.121702c0,0.030425 0,0.091279 0.030684,0.121704c0.030684,0.060856 0.061361,0.091281 0.092043,0.121706z"/>
   <ellipse id="svg_119" fill="#ffffff" ry="1" rx="1.1" transform="matrix(0.140211, 0.270489, -0.272751, 0.139048, 27.4503, -16.0103)" cy="42.256682" cx="74.74503"/>
   <ellipse id="svg_120" fill="#ffffff" ry="1.1" rx="1.1" transform="matrix(-0.272751, 0.139048, -0.140211, -0.270489, 56.546, 12.6141)" cy="57.55497" cx="83.656682"/>
   <path id="svg_121" fill="#ffffff" d="m25.775713,7.839571c0.03068,0.030425 0.061365,0.060851 0.122725,0.060851c0.061363,0.030426 0.092039,0.030426 0.153402,0c-0.030684,-0.091276 -0.061363,-0.182555 -0.122721,-0.273836c-0.030682,-0.091276 -0.092041,-0.182556 -0.122726,-0.304262c-0.03068,0.030426 -0.061359,0.030426 -0.061359,0.060855c-0.03068,0.030426 -0.061357,0.060851 -0.061357,0.121701c-0.030684,0.09128 -0.030684,0.152131 0.030678,0.243412c0,0.030425 0.03068,0.060854 0.061359,0.091279zm1.503355,3.985838c0.03068,0 0.03068,-0.030425 0.061363,-0.060854c-0.030684,-0.152131 -0.092045,-0.334683 -0.153406,-0.547668c-0.061363,0 -0.122723,0 -0.214767,0.030425c-0.153397,0.09128 -0.214762,0.273833 -0.122719,0.425966c0.092041,0.182556 0.276123,0.243408 0.429529,0.152131zm-7.27132,-8.82361c-0.092039,0.030426 -0.122723,0.121706 -0.153406,0.182559c-0.030676,0.091279 -0.030676,0.152131 0.030684,0.243411c0.092043,0.152129 0.276125,0.212982 0.429529,0.152129c0.092039,-0.030425 0.122725,-0.121703 0.153404,-0.182556c0.03068,-0.09128 0.03068,-0.152133 -0.03068,-0.243411c-0.030685,-0.091278 -0.122725,-0.121705 -0.18409,-0.152131c-0.092039,-0.030425 -0.184076,-0.030425 -0.245441,0zm-1.626078,1.034493c0,0.030425 0,0.091278 0.030684,0.121703l0.092043,0.091277c0.061361,0.060854 0.153402,0.09128 0.245447,0.060854c0.030676,0 0.092041,0 0.122721,-0.030425c0.092039,-0.030429 0.122725,-0.121706 0.1534,-0.182558c0.030685,-0.091276 0.030685,-0.152131 -0.030676,-0.24341c-0.030685,-0.091278 -0.122725,-0.121703 -0.18409,-0.15213c-0.092039,-0.030426 -0.1534,-0.030426 -0.245441,0.030427c-0.122723,0.060851 -0.184088,0.182557 -0.184088,0.304262zm0.920425,-1.856c0.092037,0.030425 0.1534,0.030425 0.24544,-0.030427c0.153408,-0.091279 0.214767,-0.273836 0.122728,-0.425968c-0.092045,-0.152131 -0.276131,-0.212984 -0.429535,-0.152131l-0.092035,0.091278c-0.061365,0.060853 -0.092043,0.152131 -0.061365,0.243411c0,0.030426 0,0.091279 0.030682,0.121704c0.030684,0.060853 0.092039,0.121706 0.184086,0.152133z"/>
   <ellipse id="svg_122" fill="#ffffff" ry="1.1" rx="1.1" transform="matrix(0.140211, 0.270489, -0.272751, 0.139048, 16.1374, -12.6598)" cy="17.556682" cx="47.34503"/>
   <ellipse id="svg_123" fill="#ffffff" ry="1.1" rx="1.1" transform="matrix(0.140211, 0.270489, -0.272751, 0.139048, 16.9228, -11.7683)" cy="21.156682" cx="46.14503"/>
   <ellipse id="svg_124" fill="#ffffff" ry="1" rx="1.1" transform="matrix(0.140211, 0.270489, -0.272751, 0.139048, 17.0453, -13.4283)" cy="18.756682" cx="50.84503"/>
   <path id="svg_125" fill="#ffffff" d="m17.031727,2.514979c0.153402,-0.091278 0.214762,-0.273836 0.122719,-0.425967c-0.061361,-0.091278 -0.153404,-0.152131 -0.245447,-0.182557c-0.122719,0.091279 -0.245445,0.182557 -0.337484,0.273837c0,0.060851 0,0.121704 0.030678,0.182556c0.061361,0.182557 0.276129,0.24341 0.429535,0.152131z"/>
   <ellipse id="svg_126" fill="#ffffff" ry="1" rx="1.1" transform="matrix(0.140211, 0.270489, -0.272751, 0.139048, 15.352, -13.5515)" cy="14.056682" cx="48.44503"/>
   <ellipse id="svg_127" fill="#ffffff" ry="1.1" rx="1.1" transform="matrix(0.140211, 0.270489, -0.272751, 0.139048, 19.5239, -12.4136)" cy="27.056682" cx="52.14503"/>
   <ellipse id="svg_128" fill="#ffffff" ry="1.1" rx="1.1" transform="matrix(0.140211, 0.270489, -0.272751, 0.139048, 20.3091, -11.5218)" cy="30.656682" cx="51.04503"/>
   <ellipse id="svg_129" fill="#ffffff" ry="1.1" rx="1.1" transform="matrix(-0.140211, -0.270489, 0.272751, -0.139048, 22.6828, 34.4942)" cy="36.943318" cx="87.05497"/>
   <ellipse id="svg_130" fill="#ffffff" ry="1.1" rx="1.1" transform="matrix(0.140211, 0.270489, -0.272751, 0.139048, 18.6164, -11.645)" cy="25.856682" cx="48.64503"/>
   <ellipse id="svg_131" fill="#ffffff" ry="1" rx="1.1" transform="matrix(0.140211, 0.270489, -0.272751, 0.139048, 18.7385, -13.3054)" cy="23.456682" cx="53.24503"/>
   <path id="svg_132" fill="#ffffff" d="m18.811199,7.961277c0.030685,0 0.092043,0 0.122725,-0.030429c0.153404,-0.091277 0.214769,-0.273837 0.122726,-0.425968l-0.092047,-0.091275c-0.03068,-0.030426 -0.061361,-0.060855 -0.122719,-0.060855c-0.092041,-0.030426 -0.153408,-0.030426 -0.245449,0.030429c-0.092039,0.030426 -0.122723,0.121701 -0.1534,0.182556c0,0.030425 -0.030682,0.091276 0,0.121705c0,0.030427 0,0.091277 0.030678,0.121706c0.061365,0.091276 0.184086,0.152131 0.337486,0.152131zm-0.644293,-1.490888c0.122725,-0.060851 0.184086,-0.182557 0.184086,-0.304262c0,-0.030425 0,-0.091277 -0.030682,-0.121705c-0.092043,-0.152132 -0.276127,-0.212982 -0.429529,-0.152132c-0.092041,0.03043 -0.122725,0.121706 -0.153404,0.18256c-0.030678,0.091277 -0.030678,0.152132 0.03068,0.243408c0.061361,0.18256 0.245447,0.243411 0.398849,0.152131zm-1.04314,-2.008132l-0.092039,0.09128c-0.061367,0.060851 -0.092045,0.152131 -0.061367,0.243411c0,0.030425 0,0.091276 0.030682,0.121702l0.092043,0.09128c0.061361,0.060854 0.153404,0.09128 0.245447,0.060854c0.030678,0 0.092045,0 0.122721,-0.030429l0.092043,-0.09128c0.061359,-0.060851 0.092043,-0.152127 0.061359,-0.243407c0,-0.030426 0,-0.09128 -0.03068,-0.121706l-0.092039,-0.09128c-0.061359,-0.06085 -0.153404,-0.091276 -0.245447,-0.06085c-0.030684,0 -0.061359,0.030425 -0.122723,0.030425zm-1.56472,1.186625l0.092042,0.091277c0.061365,0.06085 0.153404,0.09128 0.245448,0.06085c0.030684,0 0.092042,0 0.122721,-0.030422c0.153406,-0.091283 0.214769,-0.273839 0.122728,-0.42597c-0.092045,-0.152131 -0.27613,-0.212982 -0.429532,-0.152131c-0.184083,0.09128 -0.245446,0.273836 -0.153407,0.456396zm2.699905,-3.225182c0.153402,-0.091278 0.214762,-0.273837 0.122719,-0.425968c-0.092039,-0.152131 -0.276121,-0.212984 -0.429525,-0.152131l-0.092043,0.091278c-0.061361,0.060853 -0.092045,0.152131 -0.061361,0.243411c0,0.030425 0,0.091278 0.030678,0.121704c0.061363,0.121706 0.276131,0.212984 0.429533,0.121706z"/>
   <ellipse id="svg_133" fill="#ffffff" ry="1.1" rx="1.1" transform="matrix(0.140211, 0.270489, -0.272751, 0.139048, 15.892, -9.33904)" cy="22.356682" cx="37.94503"/>
   <ellipse id="svg_134" fill="#ffffff" ry="1.1" rx="1.1" transform="matrix(0.140211, 0.270489, -0.272751, 0.139048, 16.6774, -8.44755)" cy="25.956682" cx="36.84503"/>
   <ellipse id="svg_135" fill="#ffffff" ry="1" rx="1.1" transform="matrix(0.140211, 0.270489, -0.272751, 0.139048, 16.7998, -10.1076)" cy="23.556682" cx="41.54503"/>
   <path id="svg_136" fill="#ffffff" d="m15.589729,3.245208c0.122724,-0.060851 0.184082,-0.212983 0.153402,-0.334687c-0.122719,0.121704 -0.276125,0.243409 -0.398849,0.365115c0.092043,0.030425 0.184088,0.030425 0.245447,-0.030428zm1.534037,5.355019c0.061363,0.060855 0.153404,0.09128 0.245443,0.060855c0.030684,0 0.092043,0 0.122726,-0.030426c0.153402,-0.09128 0.214764,-0.27384 0.122719,-0.425971c-0.061359,-0.121703 -0.184078,-0.182557 -0.306805,-0.182557c-0.03068,0 -0.092045,0 -0.122721,0.030429c-0.092045,0.030425 -0.122726,0.121703 -0.153402,0.182557c-0.030685,0.091277 -0.030685,0.152131 0.030676,0.243408c0,0.060854 0.030682,0.091279 0.061363,0.121705z"/>
   <ellipse id="svg_137" fill="#ffffff" ry="1.1" rx="1.1" transform="matrix(0.140211, 0.270489, -0.272751, 0.139048, 19.2779, -9.09289)" cy="31.856682" cx="42.84503"/>
   <ellipse id="svg_138" fill="#ffffff" ry="1.1" rx="1.1" transform="matrix(-0.140211, -0.270489, 0.272751, -0.139048, 14.4537, 33.8957)" cy="44.143318" cx="72.95497"/>
   <ellipse id="svg_139" fill="#ffffff" ry="1" rx="1.1" transform="matrix(0.140211, 0.270489, -0.272751, 0.139048, 20.1863, -9.86145)" cy="33.056682" cx="46.34503"/>
   <ellipse id="svg_140" fill="#ffffff" ry="1.1" rx="1.1" transform="matrix(0.140211, 0.270489, -0.272751, 0.139048, 18.3707, -8.32432)" cy="30.656682" cx="39.24503"/>
   <ellipse id="svg_141" fill="#ffffff" ry="1" rx="1.1" transform="matrix(0.140211, 0.270489, -0.272751, 0.139048, 18.4931, -9.98468)" cy="28.256682" cx="43.94503"/>
   <path id="svg_142" fill="#ffffff" d="m13.810251,5.070784c0.122723,-0.060854 0.184086,-0.18256 0.184086,-0.304265c-0.061363,0.09128 -0.122726,0.152131 -0.184086,0.243411c-0.03068,0.030425 -0.03068,0.060854 -0.061359,0.09128c0,0 0.03068,-0.030426 0.061359,-0.030426zm-0.337489,1.095343c0.153405,-0.091277 0.214766,-0.273837 0.122726,-0.425967c-0.061363,-0.091277 -0.153403,-0.152131 -0.245446,-0.152131c-0.122723,0.152131 -0.214767,0.304261 -0.337489,0.456393c0.122723,0.121705 0.306809,0.18256 0.460209,0.121705zm1.534035,1.217052l-0.09204,0.091276c-0.061362,0.060855 -0.092044,0.152131 -0.061362,0.243412c0,0.030425 0,0.091279 0.03068,0.121704c0.092043,0.152131 0.276126,0.212986 0.429533,0.152131c0.153399,-0.09128 0.214763,-0.273835 0.122718,-0.425967c-0.061359,-0.212985 -0.276125,-0.273837 -0.429528,-0.182556z"/>
   <ellipse id="svg_143" fill="#ffffff" ry="1.1" rx="1.1" transform="matrix(-0.272751, 0.139048, -0.140211, -0.270489, 34.0427, 15.281)" cy="53.05497" cx="45.856682"/>
   <path id="svg_144" fill="#ffffff" d="m14.209101,6.470389c0.061361,0.060854 0.153404,0.09128 0.245443,0.060854c0.03068,0 0.092044,0 0.122724,-0.030425c0.092044,-0.030429 0.122719,-0.121706 0.153402,-0.18256c0.030684,-0.091276 0.030684,-0.152131 -0.030684,-0.243408l-0.09204,-0.09128c-0.061358,-0.06085 -0.153402,-0.09128 -0.245441,-0.06085c-0.030684,0 -0.092043,0 -0.122725,0.030422l-0.092042,0.09128c-0.092041,0.09128 -0.092041,0.24341 -0.030682,0.365116c0.030682,0 0.06136,0.030425 0.092044,0.060851zm0.214763,10.284069c-0.153401,0.091276 -0.214763,0.273832 -0.122723,0.425964c0,0.03043 0.030681,0.060852 0.061364,0.060852c0.061358,-0.060852 0.092039,-0.121702 0.153402,-0.182554c0.092039,-0.09128 0.153404,-0.212986 0.245446,-0.304262c-0.030684,0 -0.030684,-0.030428 -0.061367,-0.030428c-0.09204,-0.030426 -0.184079,-0.030426 -0.276123,0.030428z"/>
   <ellipse id="svg_145" fill="#ffffff" ry="1.1" rx="1.1" transform="matrix(-0.140211, -0.270489, 0.272751, -0.139048, 2.66768, 44.1028)" cy="72.643318" cx="64.05497"/>
   <path id="svg_146" fill="#ffffff" d="m14.79203,15.659112c-0.153404,0.091282 -0.214763,0.27384 -0.122719,0.425969c0.092042,0.152128 0.276122,0.21298 0.429526,0.152128c0.030682,0 0.030682,-0.030428 0.061362,-0.060852c0.03068,-0.06085 0.061361,-0.091276 0.092038,-0.152126c0.030685,-0.060853 0,-0.152135 -0.030677,-0.212985c-0.092042,-0.152134 -0.276128,-0.24341 -0.429531,-0.152134zm-1.656754,1.79515c-0.03068,0 -0.092039,0 -0.122723,0.030422l-0.09204,0.09128c-0.03068,0.03043 -0.061363,0.060854 -0.061363,0.121706c-0.03068,0.091278 -0.03068,0.152128 0.030684,0.243414l0.092044,0.091272c0.061359,0.060856 0.153399,0.09128 0.245442,0.060856c0.030679,0 0.092043,0 0.122723,-0.030426l0.092043,-0.09128c0.06136,-0.060852 0.09204,-0.152132 0.06136,-0.24341c0,-0.030426 0,-0.091278 -0.030684,-0.121702c-0.09204,-0.12171 -0.214764,-0.182562 -0.337486,-0.152132zm-4.540738,-4.9899c-0.153404,0.091277 -0.214765,0.273833 -0.122722,0.425963l0.092039,0.091281c0.061364,0.06085 0.153405,0.091279 0.245447,0.06085c0.030682,0 0.092044,0 0.122723,-0.030425l0.092042,-0.091276c0.061361,-0.060852 0.092042,-0.152131 0.061361,-0.243412c0,-0.030428 0,-0.091279 -0.03068,-0.121704c-0.030682,-0.091277 -0.122724,-0.121706 -0.184085,-0.152131c-0.122721,0 -0.214765,0 -0.276126,0.060854z"/>
   <ellipse id="svg_147" fill="#ffffff" ry="1.1" rx="1.1" transform="matrix(-0.140211, -0.270489, 0.272751, -0.139048, -2.00437, 32.6991)" cy="58.543318" cx="44.95497"/>
   <ellipse id="svg_148" fill="#ffffff" ry="1.1" rx="1.1" transform="matrix(-0.140211, -0.270489, 0.272751, -0.139048, 0.738479, 32.8984)" cy="56.143318" cx="49.65497"/>
   <ellipse id="svg_149" fill="#ffffff" ry="1" rx="1.1" transform="matrix(-0.140211, -0.270489, 0.272751, -0.139048, -0.93822, 36.9256)" cy="64.343318" cx="50.95497"/>
   <ellipse id="svg_150" fill="#ffffff" ry="1.1" rx="1.1" transform="matrix(0.140211, 0.270489, -0.272751, 0.139048, 22.7135, 2.00721)" cy="59.256682" cx="18.54503"/>
   <ellipse id="svg_151" fill="#ffffff" ry="1" rx="1.1" transform="matrix(0.140211, 0.270489, -0.272751, 0.139048, 22.8365, 0.347159)" cy="56.856682" cx="23.24503"/>
   <ellipse id="svg_152" fill="#ffffff" ry="1.1" rx="1.1" transform="matrix(-0.140211, -0.270489, 0.272751, -0.139048, -2.20779, 35.4502)" cy="63.243318" cx="47.45497"/>
   <ellipse id="svg_153" fill="#ffffff" ry="1.1" rx="1.1" transform="matrix(-0.140211, -0.270489, 0.272751, -0.139048, 0.534759, 35.6495)" cy="60.843318" cx="52.05497"/>
   <path id="svg_154" fill="#ffffff" d="m11.938731,18.245342c-0.092044,-0.09128 -0.245447,-0.09128 -0.36817,-0.030426c-0.153402,0.091278 -0.214763,0.273838 -0.12272,0.42597c0.09204,0.152128 0.276127,0.21298 0.429529,0.152128c0.153403,-0.091278 0.214764,-0.273836 0.122719,-0.425966c0,-0.060854 -0.030679,-0.09128 -0.061358,-0.121706zm0.613612,-1.643019c0.153403,-0.091276 0.214763,-0.273836 0.122726,-0.425966l-0.092044,-0.091276c-0.092043,-0.091279 -0.245445,-0.091279 -0.368169,-0.03043c-0.092039,0.03043 -0.122723,0.121706 -0.153403,0.182558c-0.03068,0.091278 -0.03068,0.152132 0.030681,0.24341c0.122723,0.15213 0.306806,0.212984 0.460209,0.121704z"/>
   <ellipse id="svg_155" fill="#ffffff" ry="1.1" rx="1.1" transform="matrix(0.272751, -0.139048, 0.140211, 0.270489, -8.71945, 8.67513)" cy="53.84503" cx="44.543318"/>
   <ellipse id="svg_156" fill="#ffffff" ry="1.1" rx="1.1" transform="matrix(-0.140211, -0.270489, 0.272751, -0.139048, -2.81833, 43.7036)" cy="77.443318" cx="54.65497"/>
   <ellipse id="svg_157" fill="#ffffff" ry="1.1" rx="1.1" transform="matrix(-0.140211, -0.270489, 0.272751, -0.139048, -0.0748659, 43.9035)" cy="75.043318" cx="59.35497"/>
   <ellipse id="svg_158" fill="#ffffff" ry="1.1" rx="1.1" transform="matrix(-0.140211, -0.270489, 0.272751, -0.139048, -2.61461, 40.9528)" cy="72.643318" cx="52.25497"/>
   <ellipse id="svg_159" fill="#ffffff" ry="1.1" rx="1.1" transform="matrix(-0.140211, -0.270489, 0.272751, -0.139048, 0.127933, 41.1521)" cy="70.243318" cx="56.95497"/>
   <path id="svg_160" fill="#ffffff" d="m10.374016,18.914717c-0.092041,-0.030422 -0.153402,-0.030422 -0.245444,0.030428c-0.092043,0.03043 -0.122722,0.121704 -0.153403,0.182562s-0.030681,0.15213 0.030682,0.243408c0.030679,0.091276 0.122722,0.121704 0.184082,0.15213c0.092043,0.030424 0.153404,0.030424 0.245448,-0.030426l0.09204,-0.091284c0.03068,-0.03042 0.061362,-0.060848 0.061362,-0.121698c0,-0.030428 0.030681,-0.09128 0,-0.121708c0,-0.030422 0,-0.09128 -0.030683,-0.121702c-0.03068,-0.030426 -0.09204,-0.091282 -0.184084,-0.12171zm1.503355,-4.259668c-0.092043,-0.091278 -0.245446,-0.091278 -0.368169,-0.030428c-0.092043,0.030428 -0.122724,0.121711 -0.153403,0.182557c0,0.030428 -0.030681,0.091284 0,0.121708c0,0.030426 0,0.091278 0.03068,0.121702c0.030681,0.091282 0.122724,0.121706 0.184083,0.152134c0.030684,0 0.092043,0.030426 0.122723,0c0.030684,0 0.092044,0 0.122727,-0.030428c0.09204,-0.030424 0.12272,-0.121706 0.153399,-0.182558c0.030679,-0.091274 0.030679,-0.15213 -0.03068,-0.243404c0,-0.030429 -0.03068,-0.091283 -0.06136,-0.091283zm-1.810161,0.669379c-0.153403,0.091278 -0.214765,0.273832 -0.122723,0.425966l0.092041,0.091278c0.061361,0.060852 0.153403,0.09128 0.245446,0.060852c0.030683,0 0.092041,0 0.122722,-0.030428c0.153403,-0.091274 0.214767,-0.273836 0.122724,-0.425966c-0.09204,-0.121702 -0.276127,-0.182558 -0.46021,-0.121702zm1.165865,3.955409c-0.153403,0.091278 -0.214763,0.273832 -0.122723,0.425964c0.061362,0.121704 0.184087,0.18256 0.306807,0.18256l0.276125,-0.18256c0.030684,-0.091278 0.030684,-0.182556 0,-0.273832c-0.122723,-0.152132 -0.306806,-0.212988 -0.460209,-0.152132zm1.411311,-0.730232c-0.153403,0.091282 -0.214763,0.273836 -0.122723,0.42597l0.03068,0.030426c0.153403,-0.121706 0.306807,-0.273836 0.490893,-0.395546c-0.122724,-0.091276 -0.245447,-0.1217 -0.39885,-0.06085zm-5.491839,-5.355016l-0.092042,0.091278c-0.030681,0.030428 -0.061361,0.060853 -0.061361,0.121707c-0.030682,0.091281 -0.030682,0.152131 0.030681,0.24341l0.092041,0.091278c0.061361,0.060853 0.153403,0.091278 0.245446,0.060853c0.030679,0 0.092041,0 0.122723,-0.030428c0.092041,-0.030425 0.122724,-0.121703 0.153404,-0.182557c0.030679,-0.091275 0.030679,-0.152131 -0.03068,-0.24341c-0.061364,-0.121703 -0.184084,-0.182553 -0.306808,-0.182553c-0.061361,0 -0.122724,0 -0.153403,0.030422zm4.04985,6.085248c-0.092044,0.030422 -0.122725,0.121698 -0.153404,0.182554c-0.03068,0.091278 -0.03068,0.152132 0.03068,0.24341c0.030681,0.09128 0.122725,0.121704 0.184083,0.152132c0.092044,0.030428 0.153404,0.030428 0.245447,-0.030428l0.092043,-0.091274c0.092039,-0.09128 0.092039,-0.243412 0.03068,-0.365116c-0.061363,-0.121706 -0.245446,-0.182558 -0.429528,-0.091278zm2.147646,-2.890495c-0.153402,0.091278 -0.214767,0.273838 -0.122723,0.425966c0.030679,0.091282 0.122723,0.121704 0.184082,0.152132c0.092044,0.030426 0.153403,0.030426 0.245446,-0.030428c0.153403,-0.091278 0.214763,-0.273832 0.122724,-0.425964c-0.092044,-0.152132 -0.276126,-0.212986 -0.429529,-0.121706z"/>
   <ellipse id="svg_161" fill="#ffffff" ry="1" rx="1.1" transform="matrix(-0.140211, -0.270489, 0.272751, -0.139048, -6.01741, 31.0241)" cy="59.743318" cx="36.75497"/>
   <ellipse id="svg_162" fill="#ffffff" ry="1.1" rx="1.1" transform="matrix(-0.140211, -0.270489, 0.272751, -0.139048, -7.49069, 32.2999)" cy="63.343318" cx="35.65497"/>
   <ellipse id="svg_163" fill="#ffffff" ry="1.1" rx="1.1" transform="matrix(-0.140211, -0.270489, 0.272751, -0.139048, -4.74753, 32.4995)" cy="60.943318" cx="40.35497"/>
   <path id="svg_164" fill="#ffffff" d="m7.888884,14.62462c-0.153404,0.091282 -0.214767,0.273841 -0.122724,0.425967s0.276126,0.212984 0.429529,0.152134c0.153403,-0.091278 0.214763,-0.273836 0.122724,-0.42597c-0.061363,-0.182553 -0.245447,-0.243406 -0.429529,-0.152131z"/>
   <ellipse id="svg_165" fill="#ffffff" ry="1.1" rx="1.1" transform="matrix(0.140211, 0.270489, -0.272751, 0.139048, 21.6826, 4.43614)" cy="60.456682" cx="10.34503"/>
   <ellipse id="svg_166" fill="#ffffff" ry="1.1" rx="1.1" transform="matrix(-0.140211, -0.270489, 0.272751, -0.139048, -7.8969, 37.8028)" cy="72.743318" cx="40.45497"/>
   <ellipse id="svg_167" fill="#ffffff" ry="1" rx="1.1" transform="matrix(0.140211, 0.270489, -0.272751, 0.139048, 22.5911, 3.66788)" cy="61.656682" cx="13.84503"/>
   <ellipse id="svg_168" fill="#ffffff" ry="1.1" rx="1.1" transform="matrix(-0.140211, -0.270489, 0.272751, -0.139048, -7.6941, 35.051)" cy="68.043318" cx="38.05497"/>
   <ellipse id="svg_169" fill="#ffffff" ry="1.1" rx="1.1" transform="matrix(-0.140211, -0.270489, 0.272751, -0.139048, -4.95095, 35.2509)" cy="65.643318" cx="42.75497"/>
   <path id="svg_170" fill="#ffffff" d="m5.035579,16.085081c-0.153403,0.091276 -0.214765,0.273834 -0.122721,0.425966c0.03068,0.091276 0.122721,0.121702 0.184083,0.152132c0.092041,0.030424 0.153403,0.030424 0.245444,-0.03043c0.153403,-0.091276 0.214765,-0.273834 0.122723,-0.425968c-0.061361,-0.15213 -0.276126,-0.212979 -0.429529,-0.1217zm3.804405,3.55987c-0.030682,0 -0.092041,0 -0.122724,0.030424c-0.122723,0.060856 -0.184084,0.182558 -0.184084,0.304262c0,0.030428 0,0.09128 0.030679,0.121706c0.092044,0.152132 0.276129,0.212984 0.429531,0.152132c0.153403,-0.091282 0.214766,-0.273838 0.122723,-0.42597c-0.030681,-0.15213 -0.153404,-0.212982 -0.276125,-0.182554zm0.859057,-1.582165c0.153404,-0.09128 0.214766,-0.273838 0.122723,-0.425968c-0.092041,-0.152134 -0.276127,-0.212986 -0.42953,-0.152134c-0.153402,0.09128 -0.214763,0.27384 -0.122723,0.42597c0.061363,0.182558 0.276126,0.243408 0.42953,0.152132z"/>
   <ellipse id="svg_171" fill="#ffffff" ry="1.1" rx="1.1" transform="matrix(0.272751, -0.139048, 0.140211, 0.270489, -9.71013, 7.53779)" cy="58.64503" cx="35.143318"/>
   <ellipse id="svg_172" fill="#ffffff" ry="1.1" rx="1.1" transform="matrix(-0.140211, -0.270489, 0.272751, -0.139048, -8.30404, 43.3051)" cy="82.243318" cx="45.35497"/>
   <ellipse id="svg_173" fill="#ffffff" ry="1.1" rx="1.1" transform="matrix(-0.140211, -0.270489, 0.272751, -0.139048, -5.56149, 43.504)" cy="79.843318" cx="50.05497"/>
   <ellipse id="svg_174" fill="#ffffff" ry="1.1" rx="1.1" transform="matrix(0.272751, -0.139048, 0.140211, 0.270489, -9.6681, 7.00533)" cy="57.44503" cx="31.643318"/>
   <ellipse id="svg_175" fill="#ffffff" ry="1.1" rx="1.1" transform="matrix(-0.140211, -0.270489, 0.272751, -0.139048, -5.35808, 40.7529)" cy="75.043318" cx="47.55497"/>
   <path id="svg_176" fill="#ffffff" d="m7.704799,20.527311l-0.092041,-0.091282c-0.030682,-0.03042 -0.061364,-0.060852 -0.122724,-0.060852c-0.092044,-0.030424 -0.153405,-0.030424 -0.245446,0.030432l-0.092041,0.091276c-0.061362,0.060854 -0.092042,0.15213 -0.061362,0.243406c0,0.030426 0,0.091282 0.030681,0.12171c0.061361,0.1217 0.184084,0.182556 0.306808,0.182556c0.030679,0 0.092041,0 0.122721,-0.03043l0.092044,-0.091276c0.030679,-0.030428 0.06136,-0.06085 0.06136,-0.121704c0.061362,-0.091278 0.030681,-0.182556 0,-0.273836zm-0.92042,-1.582167c-0.092043,-0.030428 -0.153403,-0.030428 -0.245447,0.03043c-0.153403,0.091274 -0.214763,0.273834 -0.122723,0.425961s0.276126,0.212988 0.42953,0.152134c0.153404,-0.091278 0.214766,-0.273832 0.122723,-0.425962c-0.061362,-0.09128 -0.122723,-0.152132 -0.184083,-0.182562zm2.147646,-2.312395c0.092042,-0.030426 0.122724,-0.121702 0.153403,-0.182558s0.030681,-0.15213 -0.03068,-0.24341c-0.030682,-0.091274 -0.122724,-0.1217 -0.184085,-0.15213c-0.092042,-0.03042 -0.153403,-0.03042 -0.245444,0.03043c-0.153403,0.091276 -0.214767,0.273834 -0.122725,0.425966c0.06136,0.121702 0.184084,0.182556 0.306808,0.182556c0.061361,-0.030424 0.092044,-0.030424 0.122723,-0.060854zm-1.718116,0.152134c-0.153405,0.091282 -0.214766,0.273836 -0.122725,0.425968c0.092041,0.15213 0.276127,0.21298 0.429531,0.15213c0.122723,-0.06085 0.184083,-0.18256 0.184083,-0.304262c0,-0.03043 0,-0.09128 -0.030681,-0.121708c-0.092041,-0.152128 -0.306806,-0.212982 -0.460208,-0.152128zm1.135183,3.955408c-0.153403,0.091282 -0.214765,0.273836 -0.122724,0.425972c0.030681,0.060846 0.092044,0.121702 0.184083,0.152126c0.122725,-0.030424 0.214767,-0.060846 0.337491,-0.09128c0.092041,-0.091276 0.122721,-0.243408 0.030679,-0.365108c-0.061361,-0.12171 -0.245445,-0.18256 -0.429529,-0.12171z"/>
   <ellipse id="svg_177" fill="#ffffff" ry="1.1" rx="1.1" transform="matrix(-0.140211, -0.270489, 0.272751, -0.139048, -5.7649, 46.2555)" cy="84.543318" cx="52.45497"/>
   <path id="svg_178" fill="#ffffff" d="m4.299244,14.655048c-0.092042,0.030429 -0.122724,0.121703 -0.153403,0.182557c-0.030682,0.09128 -0.030682,0.15213 0.03068,0.243414c0.030682,0.091274 0.122724,0.121702 0.184085,0.152128s0.153403,0.030424 0.245445,-0.030426l0.092041,-0.091278c0.030682,-0.030424 0.061361,-0.060856 0.061361,-0.121708c0,-0.030424 0.030682,-0.091274 0,-0.121704s0,-0.09128 -0.03068,-0.1217l-0.092042,-0.091283c-0.030681,-0.030428 -0.061363,-0.06085 -0.122723,-0.06085s-0.153403,0 -0.214765,0.06085zm-0.920421,-1.125769c0,0.030425 0,0.091275 0.03068,0.121704c0.092043,0.152131 0.276126,0.212982 0.429529,0.152131c0.122723,-0.060853 0.184085,-0.18256 0.184085,-0.30426c0,-0.030428 0,-0.091281 -0.03068,-0.121706l-0.092042,-0.091282c-0.061363,-0.06085 -0.153405,-0.091278 -0.245446,-0.06085c-0.03068,0 -0.092042,0 -0.122724,0.030425c-0.092041,0.030425 -0.153403,0.152132 -0.153403,0.273838z"/>
   <ellipse id="svg_179" fill="#ffffff" ry="1.1" rx="1.1" transform="matrix(0.272751, -0.139048, 0.140211, 0.270489, -8.38012, 4.41332)" cy="44.54503" cx="16.143318"/>
   <path id="svg_180" fill="#ffffff" d="m1.783428,15.020164c-0.061361,0.030424 -0.092043,0.060856 -0.122723,0.121706c0.092043,0.15213 0.153403,0.33469 0.245446,0.48682c0.06136,0 0.122721,0 0.184083,-0.03043c0.153403,-0.091274 0.214764,-0.273832 0.122723,-0.425966c-0.092043,-0.15213 -0.276126,-0.212982 -0.429529,-0.15213z"/>
   <ellipse id="svg_181" fill="#ffffff" ry="1.1" rx="1.1" transform="matrix(-0.140211, -0.270489, 0.272751, -0.139048, -10.2335, 32.1006)" cy="65.743318" cx="30.95497"/>
   <path id="svg_182" fill="#ffffff" d="m1.016411,13.59013c-0.03068,0 -0.03068,0.030425 -0.03068,0.030425c0.061361,0.18256 0.153403,0.365117 0.245445,0.578102c0.03068,0 0.061362,0 0.092042,-0.030429c0.153405,-0.09128 0.214764,-0.273831 0.122723,-0.425966c-0.061362,-0.182557 -0.276126,-0.243407 -0.429529,-0.152132z"/>
   <ellipse id="svg_183" fill="#ffffff" ry="1" rx="1.1" transform="matrix(0.140211, 0.270489, -0.272751, 0.139048, 17.2655, 6.61923)" cy="52.256682" cx="-2.75497"/>
   <path id="svg_184" fill="#ffffff" d="m4.360605,18.245342c-0.122724,0.060852 -0.184085,0.182556 -0.184085,0.304262c0,0.030428 0,0.091282 0.030682,0.121706l0.092042,0.091276c0.061361,0.060854 0.153403,0.09128 0.245444,0.060854c0.03068,0 0.092043,0 0.122723,-0.030426c0.153403,-0.091278 0.214765,-0.273836 0.122723,-0.425966c-0.092043,-0.121706 -0.276126,-0.182558 -0.429529,-0.121706z"/>
   <ellipse id="svg_185" fill="#ffffff" ry="1" rx="1.1" transform="matrix(-0.140211, -0.270489, 0.272751, -0.139048, -11.9105, 36.1275)" cy="73.943318" cx="32.25497"/>
   <path id="svg_186" fill="#ffffff" d="m3.2561,17.910654l-0.03068,0.03043c0.122724,0.182552 0.245445,0.36511 0.368168,0.517241c0.122723,-0.091276 0.184085,-0.273834 0.092041,-0.395538c-0.061359,-0.18256 -0.276126,-0.243412 -0.429529,-0.152132z"/>
   <ellipse id="svg_187" fill="#ffffff" ry="1.1" rx="1.1" transform="matrix(0.272751, -0.139048, 0.140211, 0.270489, -9.58281, 5.9392)" cy="55.14503" cx="24.543318"/>
   <path id="svg_188" fill="#ffffff" d="m2.519764,16.450191c-0.061362,0.030428 -0.092041,0.060856 -0.122723,0.12171c0.092043,0.152128 0.184085,0.334688 0.276126,0.486818c0.030682,0 0.092041,0 0.122723,-0.03043c0.153403,-0.091278 0.214765,-0.273832 0.122723,-0.425966c-0.061362,-0.152132 -0.245446,-0.212982 -0.398849,-0.152132z"/>
   <ellipse id="svg_189" fill="#ffffff" ry="1.1" rx="1.1" transform="matrix(0.272751, -0.139048, 0.140211, 0.270489, -9.00263, 5.44264)" cy="50.44503" cx="22.043318"/>
   <path id="svg_190" fill="#ffffff" d="m3.286781,15.506986c-0.030681,-0.09128 -0.122723,-0.121706 -0.184085,-0.152136c-0.092041,-0.030422 -0.153403,-0.030422 -0.245445,0.03043c-0.122723,0.06085 -0.184085,0.182556 -0.184085,0.304262c0,0.030428 0,0.09128 0.030682,0.121704c0.092042,0.152132 0.276125,0.212985 0.42953,0.152132c0.184083,-0.091282 0.245444,-0.273836 0.153403,-0.456392zm1.81016,4.198815c-0.122724,0.060854 -0.153404,0.152132 -0.184083,0.273836c0.122721,0.121706 0.245444,0.212986 0.368167,0.33469c0.03068,0 0.06136,0 0.092041,-0.030428c0.153403,-0.091276 0.214765,-0.273834 0.122721,-0.425966c-0.061359,-0.182558 -0.245444,-0.24341 -0.398847,-0.152132z"/>
   <ellipse id="svg_191" fill="#ffffff" ry="1.1" rx="1.1" transform="matrix(-0.140211, -0.270489, 0.272751, -0.139048, -11.0478, 43.1052)" cy="84.643318" cx="40.65497"/>
   <path id="svg_192" fill="#ffffff" d="m4.329924,19.371115c0.030682,0.03042 0.061361,0.091276 0.122723,0.121704c-0.030682,-0.06085 -0.092041,-0.091284 -0.122723,-0.121704z"/>
   <ellipse id="svg_193" fill="#ffffff" ry="1.1" rx="1.1" transform="matrix(-0.140211, -0.270489, 0.272751, -0.139048, -10.8438, 40.3543)" cy="79.843318" cx="38.25497"/>
   <path id="svg_194" fill="#ffffff" d="m6.078723,18.093212c0.092041,-0.030426 0.122723,-0.121706 0.153403,-0.182558c0.03068,-0.09128 0.03068,-0.15213 -0.03068,-0.24341c-0.030682,-0.09128 -0.092043,-0.152132 -0.184087,-0.152132c-0.03068,0 -0.09204,-0.030428 -0.122721,0c-0.03068,0 -0.092041,0 -0.122721,0.030426l-0.092044,0.09128c-0.03068,0.030426 -0.061361,0.060852 -0.061361,0.121706c-0.03068,0.091274 -0.03068,0.15213 0.030681,0.243408c0.092041,0.121704 0.276126,0.182558 0.42953,0.09128z"/>
  </g>
 </g>
</svg>